<?xml version="1.0" encoding="UTF-8" standalone="no"?><svg xmlns="http://www.w3.org/2000/svg" xmlns:xlink="http://www.w3.org/1999/xlink" contentScriptType="application/ecmascript" contentStyleType="text/css" height="382px" preserveAspectRatio="none" style="width:724px;height:382px;" version="1.1" viewBox="0 0 724 382" width="724px" zoomAndPan="magnify"><defs><filter height="300%" id="f1u50r05tn99sv" width="300%" x="-1" y="-1"><feGaussianBlur result="blurOut" stdDeviation="2.0"/><feColorMatrix in="blurOut" result="blurOut2" type="matrix" values="0 0 0 0 0 0 0 0 0 0 0 0 0 0 0 0 0 0 .4 0"/><feOffset dx="4.0" dy="4.0" in="blurOut2" result="blurOut3"/><feBlend in="SourceGraphic" in2="blurOut3" mode="normal"/></filter></defs><g><text fill="#000000" font-family="sans-serif" font-size="18" lengthAdjust="spacingAndGlyphs" textLength="218" x="250.5" y="29.4023">Go Spector CLI import v0</text><line style="stroke:#A80036;stroke-width:1.0;stroke-dasharray:5.0,5.0;" x1="39" x2="39" y1="94.1992" y2="319.373"/><line style="stroke:#A80036;stroke-width:1.0;stroke-dasharray:5.0,5.0;" x1="138" x2="138" y1="94.1992" y2="319.373"/><line style="stroke:#A80036;stroke-width:1.0;stroke-dasharray:5.0,5.0;" x1="254" x2="254" y1="94.1992" y2="319.373"/><line style="stroke:#A80036;stroke-width:1.0;stroke-dasharray:5.0,5.0;" x1="380" x2="380" y1="94.1992" y2="319.373"/><line style="stroke:#A80036;stroke-width:1.0;stroke-dasharray:5.0,5.0;" x1="510" x2="510" y1="94.1992" y2="319.373"/><line style="stroke:#A80036;stroke-width:1.0;stroke-dasharray:5.0,5.0;" x1="644" x2="644" y1="94.1992" y2="319.373"/><ellipse cx="16" cy="83.1992" fill="#ADD8E6" rx="11" ry="11" style="stroke:none;stroke-width:1.0;"/><path d="M14.7935,79.3647 L14.7935,83.0005 L15.7979,83.0005 Q17.0015,83.0005 17.4871,82.5938 Q17.9727,82.187 17.9727,81.1826 Q17.9727,80.1782 17.4871,79.7715 Q17.0015,79.3647 15.7979,79.3647 Z M12.3447,77.3062 L15.7065,77.3062 Q18.2715,77.3062 19.3962,78.2192 Q20.521,79.1323 20.521,81.1826 Q20.521,83.2329 19.3962,84.146 Q18.2715,85.0591 15.7065,85.0591 L14.7935,85.0591 L14.7935,89.6992 L12.3447,89.6992 Z " fill="#000000"/><text fill="#000000" font-family="sans-serif" font-size="14" lengthAdjust="spacingAndGlyphs" textLength="34" x="33" y="85.7344">main</text><path d="M18.5,44.1992 L18.5,68.1992 M18.5,56.1992 L35.5,56.1992 " fill="none" filter="url(#f1u50r05tn99sv)" style="stroke:#A80036;stroke-width:2.0;"/><ellipse cx="47.5" cy="56.1992" fill="#FEFECE" filter="url(#f1u50r05tn99sv)" rx="12" ry="12" style="stroke:#A80036;stroke-width:2.0;"/><ellipse cx="16" cy="329.373" fill="#ADD8E6" rx="11" ry="11" style="stroke:none;stroke-width:1.0;"/><path d="M14.7935,325.5386 L14.7935,329.1743 L15.7979,329.1743 Q17.0015,329.1743 17.4871,328.7676 Q17.9727,328.3608 17.9727,327.3564 Q17.9727,326.3521 17.4871,325.9453 Q17.0015,325.5386 15.7979,325.5386 Z M12.3447,323.48 L15.7065,323.48 Q18.2715,323.48 19.3962,324.3931 Q20.521,325.3062 20.521,327.3564 Q20.521,329.4067 19.3962,330.3198 Q18.2715,331.2329 15.7065,331.2329 L14.7935,331.2329 L14.7935,335.873 L12.3447,335.873 Z " fill="#000000"/><text fill="#000000" font-family="sans-serif" font-size="14" lengthAdjust="spacingAndGlyphs" textLength="34" x="33" y="331.9082">main</text><path d="M18.5,344.373 L18.5,368.373 M18.5,356.373 L35.5,356.373 " fill="none" filter="url(#f1u50r05tn99sv)" style="stroke:#A80036;stroke-width:2.0;"/><ellipse cx="47.5" cy="356.373" fill="#FEFECE" filter="url(#f1u50r05tn99sv)" rx="12" ry="12" style="stroke:#A80036;stroke-width:2.0;"/><ellipse cx="94" cy="83.1992" fill="#ADD8E6" rx="11" ry="11" style="stroke:none;stroke-width:1.0;"/><path d="M92.7935,79.3647 L92.7935,83.0005 L93.7979,83.0005 Q95.0015,83.0005 95.4871,82.5938 Q95.9727,82.187 95.9727,81.1826 Q95.9727,80.1782 95.4871,79.7715 Q95.0015,79.3647 93.7979,79.3647 Z M90.3447,77.3062 L93.7065,77.3062 Q96.2715,77.3062 97.3962,78.2192 Q98.521,79.1323 98.521,81.1826 Q98.521,83.2329 97.3962,84.146 Q96.2715,85.0591 93.7065,85.0591 L92.7935,85.0591 L92.7935,89.6992 L90.3447,89.6992 Z " fill="#000000"/><text fill="#000000" font-family="sans-serif" font-size="14" lengthAdjust="spacingAndGlyphs" textLength="77" x="111" y="85.7344">go-spector</text><ellipse cx="138.5" cy="56.1992" fill="#FEFECE" filter="url(#f1u50r05tn99sv)" rx="12" ry="12" style="stroke:#A80036;stroke-width:2.0;"/><polygon fill="#A80036" points="134.5,44.1992,140.5,39.1992,138.5,44.1992,140.5,49.1992,134.5,44.1992" style="stroke:#A80036;stroke-width:1.0;"/><ellipse cx="94" cy="329.373" fill="#ADD8E6" rx="11" ry="11" style="stroke:none;stroke-width:1.0;"/><path d="M92.7935,325.5386 L92.7935,329.1743 L93.7979,329.1743 Q95.0015,329.1743 95.4871,328.7676 Q95.9727,328.3608 95.9727,327.3564 Q95.9727,326.3521 95.4871,325.9453 Q95.0015,325.5386 93.7979,325.5386 Z M90.3447,323.48 L93.7065,323.48 Q96.2715,323.48 97.3962,324.3931 Q98.521,325.3062 98.521,327.3564 Q98.521,329.4067 97.3962,330.3198 Q96.2715,331.2329 93.7065,331.2329 L92.7935,331.2329 L92.7935,335.873 L90.3447,335.873 Z " fill="#000000"/><text fill="#000000" font-family="sans-serif" font-size="14" lengthAdjust="spacingAndGlyphs" textLength="77" x="111" y="331.9082">go-spector</text><ellipse cx="138.5" cy="356.373" fill="#FEFECE" filter="url(#f1u50r05tn99sv)" rx="12" ry="12" style="stroke:#A80036;stroke-width:2.0;"/><polygon fill="#A80036" points="134.5,344.373,140.5,339.373,138.5,344.373,140.5,349.373,134.5,344.373" style="stroke:#A80036;stroke-width:1.0;"/><ellipse cx="215" cy="83.1992" fill="#ADD8E6" rx="11" ry="11" style="stroke:none;stroke-width:1.0;"/><path d="M213.7935,79.3647 L213.7935,83.0005 L214.7979,83.0005 Q216.0015,83.0005 216.4871,82.5938 Q216.9727,82.187 216.9727,81.1826 Q216.9727,80.1782 216.4871,79.7715 Q216.0015,79.3647 214.7979,79.3647 Z M211.3447,77.3062 L214.7065,77.3062 Q217.2715,77.3062 218.3962,78.2192 Q219.521,79.1323 219.521,81.1826 Q219.521,83.2329 218.3962,84.146 Q217.2715,85.0591 214.7065,85.0591 L213.7935,85.0591 L213.7935,89.6992 L211.3447,89.6992 Z " fill="#000000"/><text fill="#000000" font-family="sans-serif" font-size="14" lengthAdjust="spacingAndGlyphs" textLength="67" x="232" y="85.7344">validators</text><ellipse cx="254.5" cy="56.1992" fill="#FEFECE" filter="url(#f1u50r05tn99sv)" rx="12" ry="12" style="stroke:#A80036;stroke-width:2.0;"/><polygon fill="#A80036" points="250.5,44.1992,256.5,39.1992,254.5,44.1992,256.5,49.1992,250.5,44.1992" style="stroke:#A80036;stroke-width:1.0;"/><ellipse cx="215" cy="329.373" fill="#ADD8E6" rx="11" ry="11" style="stroke:none;stroke-width:1.0;"/><path d="M213.7935,325.5386 L213.7935,329.1743 L214.7979,329.1743 Q216.0015,329.1743 216.4871,328.7676 Q216.9727,328.3608 216.9727,327.3564 Q216.9727,326.3521 216.4871,325.9453 Q216.0015,325.5386 214.7979,325.5386 Z M211.3447,323.48 L214.7065,323.48 Q217.2715,323.48 218.3962,324.3931 Q219.521,325.3062 219.521,327.3564 Q219.521,329.4067 218.3962,330.3198 Q217.2715,331.2329 214.7065,331.2329 L213.7935,331.2329 L213.7935,335.873 L211.3447,335.873 Z " fill="#000000"/><text fill="#000000" font-family="sans-serif" font-size="14" lengthAdjust="spacingAndGlyphs" textLength="67" x="232" y="331.9082">validators</text><ellipse cx="254.5" cy="356.373" fill="#FEFECE" filter="url(#f1u50r05tn99sv)" rx="12" ry="12" style="stroke:#A80036;stroke-width:2.0;"/><polygon fill="#A80036" points="250.5,344.373,256.5,339.373,254.5,344.373,256.5,349.373,250.5,344.373" style="stroke:#A80036;stroke-width:1.0;"/><rect fill="#FEFECE" filter="url(#f1u50r05tn99sv)" height="36" style="stroke:#A80036;stroke-width:1.5;" width="123" x="319" y="49.1992"/><rect fill="#FEFECE" filter="url(#f1u50r05tn99sv)" height="36" style="stroke:#A80036;stroke-width:1.5;" width="123" x="315" y="53.1992"/><ellipse cx="333" cy="71.1992" fill="#ADD8E6" rx="11" ry="11" style="stroke:#A80036;stroke-width:1.0;"/><path d="M331.7935,67.3647 L331.7935,71.0005 L332.7979,71.0005 Q334.0015,71.0005 334.4871,70.5938 Q334.9727,70.187 334.9727,69.1826 Q334.9727,68.1782 334.4871,67.7715 Q334.0015,67.3647 332.7979,67.3647 Z M329.3447,65.3062 L332.7065,65.3062 Q335.2715,65.3062 336.3962,66.2192 Q337.521,67.1323 337.521,69.1826 Q337.521,71.2329 336.3962,72.146 Q335.2715,73.0591 332.7065,73.0591 L331.7935,73.0591 L331.7935,77.6992 L329.3447,77.6992 Z " fill="#000000"/><text fill="#000000" font-family="sans-serif" font-size="14" lengthAdjust="spacingAndGlyphs" textLength="81" x="350" y="73.7344">validators/*</text><rect fill="#FEFECE" filter="url(#f1u50r05tn99sv)" height="36" style="stroke:#A80036;stroke-width:1.5;" width="123" x="319" y="318.373"/><rect fill="#FEFECE" filter="url(#f1u50r05tn99sv)" height="36" style="stroke:#A80036;stroke-width:1.5;" width="123" x="315" y="322.373"/><ellipse cx="333" cy="340.373" fill="#ADD8E6" rx="11" ry="11" style="stroke:#A80036;stroke-width:1.0;"/><path d="M331.7935,336.5386 L331.7935,340.1743 L332.7979,340.1743 Q334.0015,340.1743 334.4871,339.7676 Q334.9727,339.3608 334.9727,338.3564 Q334.9727,337.3521 334.4871,336.9453 Q334.0015,336.5386 332.7979,336.5386 Z M329.3447,334.48 L332.7065,334.48 Q335.2715,334.48 336.3962,335.3931 Q337.521,336.3062 337.521,338.3564 Q337.521,340.4067 336.3962,341.3198 Q335.2715,342.2329 332.7065,342.2329 L331.7935,342.2329 L331.7935,346.873 L329.3447,346.873 Z " fill="#000000"/><text fill="#000000" font-family="sans-serif" font-size="14" lengthAdjust="spacingAndGlyphs" textLength="81" x="350" y="342.9082">validators/*</text><ellipse cx="467" cy="83.1992" fill="#ADD8E6" rx="11" ry="11" style="stroke:none;stroke-width:1.0;"/><path d="M465.7935,79.3647 L465.7935,83.0005 L466.7979,83.0005 Q468.0015,83.0005 468.4871,82.5938 Q468.9727,82.187 468.9727,81.1826 Q468.9727,80.1782 468.4871,79.7715 Q468.0015,79.3647 466.7979,79.3647 Z M463.3447,77.3062 L466.7065,77.3062 Q469.2715,77.3062 470.3962,78.2192 Q471.521,79.1323 471.521,81.1826 Q471.521,83.2329 470.3962,84.146 Q469.2715,85.0591 466.7065,85.0591 L465.7935,85.0591 L465.7935,89.6992 L463.3447,89.6992 Z " fill="#000000"/><text fill="#000000" font-family="sans-serif" font-size="14" lengthAdjust="spacingAndGlyphs" textLength="75" x="484" y="85.7344">generators</text><ellipse cx="510.5" cy="56.1992" fill="#FEFECE" filter="url(#f1u50r05tn99sv)" rx="12" ry="12" style="stroke:#A80036;stroke-width:2.0;"/><polygon fill="#A80036" points="506.5,44.1992,512.5,39.1992,510.5,44.1992,512.5,49.1992,506.5,44.1992" style="stroke:#A80036;stroke-width:1.0;"/><ellipse cx="467" cy="329.373" fill="#ADD8E6" rx="11" ry="11" style="stroke:none;stroke-width:1.0;"/><path d="M465.7935,325.5386 L465.7935,329.1743 L466.7979,329.1743 Q468.0015,329.1743 468.4871,328.7676 Q468.9727,328.3608 468.9727,327.3564 Q468.9727,326.3521 468.4871,325.9453 Q468.0015,325.5386 466.7979,325.5386 Z M463.3447,323.48 L466.7065,323.48 Q469.2715,323.48 470.3962,324.3931 Q471.521,325.3062 471.521,327.3564 Q471.521,329.4067 470.3962,330.3198 Q469.2715,331.2329 466.7065,331.2329 L465.7935,331.2329 L465.7935,335.873 L463.3447,335.873 Z " fill="#000000"/><text fill="#000000" font-family="sans-serif" font-size="14" lengthAdjust="spacingAndGlyphs" textLength="75" x="484" y="331.9082">generators</text><ellipse cx="510.5" cy="356.373" fill="#FEFECE" filter="url(#f1u50r05tn99sv)" rx="12" ry="12" style="stroke:#A80036;stroke-width:2.0;"/><polygon fill="#A80036" points="506.5,344.373,512.5,339.373,510.5,344.373,512.5,349.373,506.5,344.373" style="stroke:#A80036;stroke-width:1.0;"/><rect fill="#FEFECE" filter="url(#f1u50r05tn99sv)" height="36" style="stroke:#A80036;stroke-width:1.5;" width="131" x="579" y="49.1992"/><rect fill="#FEFECE" filter="url(#f1u50r05tn99sv)" height="36" style="stroke:#A80036;stroke-width:1.5;" width="131" x="575" y="53.1992"/><ellipse cx="593" cy="71.1992" fill="#ADD8E6" rx="11" ry="11" style="stroke:#A80036;stroke-width:1.0;"/><path d="M591.7935,67.3647 L591.7935,71.0005 L592.7979,71.0005 Q594.0015,71.0005 594.4871,70.5938 Q594.9727,70.187 594.9727,69.1826 Q594.9727,68.1782 594.4871,67.7715 Q594.0015,67.3647 592.7979,67.3647 Z M589.3447,65.3062 L592.7065,65.3062 Q595.2715,65.3062 596.3962,66.2192 Q597.521,67.1323 597.521,69.1826 Q597.521,71.2329 596.3962,72.146 Q595.2715,73.0591 592.7065,73.0591 L591.7935,73.0591 L591.7935,77.6992 L589.3447,77.6992 Z " fill="#000000"/><text fill="#000000" font-family="sans-serif" font-size="14" lengthAdjust="spacingAndGlyphs" textLength="89" x="610" y="73.7344">generators/*</text><rect fill="#FEFECE" filter="url(#f1u50r05tn99sv)" height="36" style="stroke:#A80036;stroke-width:1.5;" width="131" x="579" y="318.373"/><rect fill="#FEFECE" filter="url(#f1u50r05tn99sv)" height="36" style="stroke:#A80036;stroke-width:1.5;" width="131" x="575" y="322.373"/><ellipse cx="593" cy="340.373" fill="#ADD8E6" rx="11" ry="11" style="stroke:#A80036;stroke-width:1.0;"/><path d="M591.7935,336.5386 L591.7935,340.1743 L592.7979,340.1743 Q594.0015,340.1743 594.4871,339.7676 Q594.9727,339.3608 594.9727,338.3564 Q594.9727,337.3521 594.4871,336.9453 Q594.0015,336.5386 592.7979,336.5386 Z M589.3447,334.48 L592.7065,334.48 Q595.2715,334.48 596.3962,335.3931 Q597.521,336.3062 597.521,338.3564 Q597.521,340.4067 596.3962,341.3198 Q595.2715,342.2329 592.7065,342.2329 L591.7935,342.2329 L591.7935,346.873 L589.3447,346.873 Z " fill="#000000"/><text fill="#000000" font-family="sans-serif" font-size="14" lengthAdjust="spacingAndGlyphs" textLength="89" x="610" y="342.9082">generators/*</text><ellipse cx="38.5" cy="124.7598" fill="none" rx="4" ry="4" style="stroke:#A80036;stroke-width:1.5;"/><line style="stroke:#A80036;stroke-width:1.0;" x1="136.5" x2="126.5" y1="125.5098" y2="121.5098"/><line style="stroke:#A80036;stroke-width:1.0;" x1="136.5" x2="126.5" y1="125.5098" y2="129.5098"/><line style="stroke:#A80036;stroke-width:1.0;stroke-dasharray:2.0,2.0;" x1="43" x2="137.5" y1="125.5098" y2="125.5098"/><text fill="#000000" font-family="sans-serif" font-size="13" lengthAdjust="spacingAndGlyphs" textLength="42" x="46" y="120.7676">import</text><ellipse cx="138" cy="154.0703" fill="none" rx="4" ry="4" style="stroke:#A80036;stroke-width:1.5;"/><line style="stroke:#A80036;stroke-width:1.0;" x1="252.5" x2="242.5" y1="154.8203" y2="150.8203"/><line style="stroke:#A80036;stroke-width:1.0;" x1="252.5" x2="242.5" y1="154.8203" y2="158.8203"/><line style="stroke:#A80036;stroke-width:1.0;stroke-dasharray:2.0,2.0;" x1="142.5" x2="253.5" y1="154.8203" y2="154.8203"/><text fill="#000000" font-family="sans-serif" font-size="13" lengthAdjust="spacingAndGlyphs" textLength="42" x="145.5" y="150.0781">import</text><ellipse cx="138" cy="183.3809" fill="none" rx="4" ry="4" style="stroke:#A80036;stroke-width:1.5;"/><line style="stroke:#A80036;stroke-width:1.0;" x1="378.5" x2="368.5" y1="184.1309" y2="180.1309"/><line style="stroke:#A80036;stroke-width:1.0;" x1="378.5" x2="368.5" y1="184.1309" y2="188.1309"/><line style="stroke:#A80036;stroke-width:1.0;stroke-dasharray:2.0,2.0;" x1="142.5" x2="379.5" y1="184.1309" y2="184.1309"/><text fill="#000000" font-family="sans-serif" font-size="13" lengthAdjust="spacingAndGlyphs" textLength="42" x="145.5" y="179.3887">import</text><polygon fill="#A80036" points="265.5,209.4414,255.5,213.4414,265.5,217.4414,261.5,213.4414" style="stroke:#A80036;stroke-width:1.0;"/><ellipse cx="380" cy="212.6914" fill="none" rx="4" ry="4" style="stroke:#A80036;stroke-width:1.5;"/><line style="stroke:#A80036;stroke-width:1.0;stroke-dasharray:2.0,2.0;" x1="259.5" x2="375.5" y1="213.4414" y2="213.4414"/><text fill="#000000" font-family="sans-serif" font-size="13" lengthAdjust="spacingAndGlyphs" textLength="42" x="271.5" y="208.6992">import</text><ellipse cx="138" cy="242.002" fill="none" rx="4" ry="4" style="stroke:#A80036;stroke-width:1.5;"/><line style="stroke:#A80036;stroke-width:1.0;" x1="508.5" x2="498.5" y1="242.752" y2="238.752"/><line style="stroke:#A80036;stroke-width:1.0;" x1="508.5" x2="498.5" y1="242.752" y2="246.752"/><line style="stroke:#A80036;stroke-width:1.0;stroke-dasharray:2.0,2.0;" x1="142.5" x2="509.5" y1="242.752" y2="242.752"/><text fill="#000000" font-family="sans-serif" font-size="13" lengthAdjust="spacingAndGlyphs" textLength="42" x="145.5" y="238.0098">import</text><ellipse cx="138" cy="271.3125" fill="none" rx="4" ry="4" style="stroke:#A80036;stroke-width:1.5;"/><line style="stroke:#A80036;stroke-width:1.0;" x1="642.5" x2="632.5" y1="272.0625" y2="268.0625"/><line style="stroke:#A80036;stroke-width:1.0;" x1="642.5" x2="632.5" y1="272.0625" y2="276.0625"/><line style="stroke:#A80036;stroke-width:1.0;stroke-dasharray:2.0,2.0;" x1="142.5" x2="643.5" y1="272.0625" y2="272.0625"/><text fill="#000000" font-family="sans-serif" font-size="13" lengthAdjust="spacingAndGlyphs" textLength="42" x="145.5" y="267.3203">import</text><line style="stroke:#A80036;stroke-width:1.0;" x1="510.5" x2="520.5" y1="301.373" y2="297.373"/><line style="stroke:#A80036;stroke-width:1.0;" x1="510.5" x2="520.5" y1="301.373" y2="305.373"/><ellipse cx="644" cy="300.623" fill="none" rx="4" ry="4" style="stroke:#A80036;stroke-width:1.5;"/><line style="stroke:#A80036;stroke-width:1.0;stroke-dasharray:2.0,2.0;" x1="510.5" x2="639.5" y1="301.373" y2="301.373"/><text fill="#000000" font-family="sans-serif" font-size="13" lengthAdjust="spacingAndGlyphs" textLength="42" x="527.5" y="296.6309">import</text><!--MD5=[c3bf5933426aa474a99af57b4e82e75f]
@startuml
autoactivate on

!include components-v0.iuml

Main o- ->> GoSpector : import
GoSpector o- ->> Validators : import
GoSpector o- ->> ValidatorsCollection : import
ValidatorsCollection o- -> Validators : import
GoSpector o- ->> Generators : import
GoSpector o- ->> GeneratorsCollection : import
GeneratorsCollection o- ->> Generators : import

title Go Spector CLI import v0
@enduml

@startuml
autoactivate on

boundary "main" as Main << (P,LightBlue) >>
control "go-spector" as GoSpector << (P,LightBlue) >>
control "validators" as Validators << (P,LightBlue) >>
collections "validators/*" as ValidatorsCollection << (P,LightBlue) >>
control "generators" as Generators << (P,LightBlue) >>
collections "generators/*" as GeneratorsCollection << (P,LightBlue) >>

Main o- ->> GoSpector : import
GoSpector o- ->> Validators : import
GoSpector o- ->> ValidatorsCollection : import
ValidatorsCollection o- -> Validators : import
GoSpector o- ->> Generators : import
GoSpector o- ->> GeneratorsCollection : import
GeneratorsCollection o- ->> Generators : import

title Go Spector CLI import v0
@enduml

PlantUML version 1.2020.26(Mon Dec 21 18:45:07 CET 2020)
(GPL source distribution)
Java Runtime: Java(TM) SE Runtime Environment
JVM: Java HotSpot(TM) 64-Bit Server VM
Default Encoding: UTF-8
Language: en
Country: NL
--></g></svg>