<?xml version="1.0" encoding="UTF-8" standalone="no"?><svg xmlns="http://www.w3.org/2000/svg" xmlns:xlink="http://www.w3.org/1999/xlink" contentScriptType="application/ecmascript" contentStyleType="text/css" height="1007px" preserveAspectRatio="none" style="width:902px;height:1007px;" version="1.1" viewBox="0 0 902 1007" width="902px" zoomAndPan="magnify"><defs><filter height="300%" id="f1apd4yn4ggpo0" width="300%" x="-1" y="-1"><feGaussianBlur result="blurOut" stdDeviation="2.0"/><feColorMatrix in="blurOut" result="blurOut2" type="matrix" values="0 0 0 0 0 0 0 0 0 0 0 0 0 0 0 0 0 0 .4 0"/><feOffset dx="4.0" dy="4.0" in="blurOut2" result="blurOut3"/><feBlend in="SourceGraphic" in2="blurOut3" mode="normal"/></filter></defs><g><text fill="#000000" font-family="sans-serif" font-size="18" lengthAdjust="spacingAndGlyphs" textLength="154" x="370.75" y="29.4023">Go Spector CLI v0</text><rect fill="#FFFFFF" filter="url(#f1apd4yn4ggpo0)" height="666.2793" style="stroke:#A80036;stroke-width:1.0;" width="10" x="49" y="260.0625"/><rect fill="#FFFFFF" filter="url(#f1apd4yn4ggpo0)" height="25" style="stroke:#A80036;stroke-width:1.0;" width="10" x="54" y="401.6152"/><rect fill="#FFFFFF" filter="url(#f1apd4yn4ggpo0)" height="25" style="stroke:#A80036;stroke-width:1.0;" width="10" x="54" y="495.2363"/><rect fill="#FFFFFF" filter="url(#f1apd4yn4ggpo0)" height="29.3105" style="stroke:#A80036;stroke-width:1.0;" width="10" x="230" y="334.9941"/><rect fill="#FFFFFF" filter="url(#f1apd4yn4ggpo0)" height="287.8633" style="stroke:#A80036;stroke-width:1.0;" width="10" x="230" y="556.5469"/><rect fill="#FFFFFF" filter="url(#f1apd4yn4ggpo0)" height="25" style="stroke:#A80036;stroke-width:1.0;" width="10" x="235" y="593.8574"/><rect fill="#FFFFFF" filter="url(#f1apd4yn4ggpo0)" height="88.6211" style="stroke:#A80036;stroke-width:1.0;" width="10" x="411" y="655.168"/><rect fill="#FFFFFF" filter="url(#f1apd4yn4ggpo0)" height="14" style="stroke:#A80036;stroke-width:1.0;" width="10" x="537" y="708.7891"/><rect fill="#FFFFFF" filter="url(#f1apd4yn4ggpo0)" height="57.3105" style="stroke:#A80036;stroke-width:1.0;" width="10" x="667" y="773.0996"/><rect fill="#FFFFFF" filter="url(#f1apd4yn4ggpo0)" height="14" style="stroke:#A80036;stroke-width:1.0;" width="10" x="801" y="802.4102"/><rect fill="#FFFFFF" filter="url(#f1apd4yn4ggpo0)" height="449.416" style="stroke:#000000;stroke-width:2.0;" width="875.5" x="10" y="448.6152"/><rect fill="#FFFFFF" filter="url(#f1apd4yn4ggpo0)" height="60.6211" style="stroke:#000000;stroke-width:2.0;" width="262" x="355.5" y="670.168"/><line style="stroke:#A80036;stroke-width:1.0;stroke-dasharray:5.0,5.0;" x1="54" x2="54" y1="94.1992" y2="944.3418"/><line style="stroke:#A80036;stroke-width:1.0;stroke-dasharray:5.0,5.0;" x1="234.5" x2="234.5" y1="94.1992" y2="944.3418"/><line style="stroke:#A80036;stroke-width:1.0;stroke-dasharray:5.0,5.0;" x1="415.5" x2="415.5" y1="94.1992" y2="944.3418"/><line style="stroke:#A80036;stroke-width:1.0;stroke-dasharray:5.0,5.0;" x1="541.5" x2="541.5" y1="94.1992" y2="944.3418"/><line style="stroke:#A80036;stroke-width:1.0;stroke-dasharray:5.0,5.0;" x1="671.5" x2="671.5" y1="94.1992" y2="944.3418"/><line style="stroke:#A80036;stroke-width:1.0;stroke-dasharray:5.0,5.0;" x1="805.5" x2="805.5" y1="94.1992" y2="944.3418"/><ellipse cx="31" cy="83.1992" fill="#ADD8E6" rx="11" ry="11" style="stroke:none;stroke-width:1.0;"/><path d="M29.7935,79.3647 L29.7935,83.0005 L30.7979,83.0005 Q32.0015,83.0005 32.4871,82.5938 Q32.9727,82.187 32.9727,81.1826 Q32.9727,80.1782 32.4871,79.7715 Q32.0015,79.3647 30.7979,79.3647 Z M27.3447,77.3062 L30.7065,77.3062 Q33.2715,77.3062 34.3962,78.2192 Q35.521,79.1323 35.521,81.1826 Q35.521,83.2329 34.3962,84.146 Q33.2715,85.0591 30.7065,85.0591 L29.7935,85.0591 L29.7935,89.6992 L27.3447,89.6992 Z " fill="#000000"/><text fill="#000000" font-family="sans-serif" font-size="14" lengthAdjust="spacingAndGlyphs" textLength="34" x="48" y="85.7344">main</text><path d="M33.5,44.1992 L33.5,68.1992 M33.5,56.1992 L50.5,56.1992 " fill="none" filter="url(#f1apd4yn4ggpo0)" style="stroke:#A80036;stroke-width:2.0;"/><ellipse cx="62.5" cy="56.1992" fill="#FEFECE" filter="url(#f1apd4yn4ggpo0)" rx="12" ry="12" style="stroke:#A80036;stroke-width:2.0;"/><ellipse cx="31" cy="954.3418" fill="#ADD8E6" rx="11" ry="11" style="stroke:none;stroke-width:1.0;"/><path d="M29.7935,950.5073 L29.7935,954.1431 L30.7979,954.1431 Q32.0015,954.1431 32.4871,953.7363 Q32.9727,953.3296 32.9727,952.3252 Q32.9727,951.3208 32.4871,950.9141 Q32.0015,950.5073 30.7979,950.5073 Z M27.3447,948.4487 L30.7065,948.4487 Q33.2715,948.4487 34.3962,949.3618 Q35.521,950.2749 35.521,952.3252 Q35.521,954.3755 34.3962,955.2886 Q33.2715,956.2017 30.7065,956.2017 L29.7935,956.2017 L29.7935,960.8418 L27.3447,960.8418 Z " fill="#000000"/><text fill="#000000" font-family="sans-serif" font-size="14" lengthAdjust="spacingAndGlyphs" textLength="34" x="48" y="956.877">main</text><path d="M33.5,969.3418 L33.5,993.3418 M33.5,981.3418 L50.5,981.3418 " fill="none" filter="url(#f1apd4yn4ggpo0)" style="stroke:#A80036;stroke-width:2.0;"/><ellipse cx="62.5" cy="981.3418" fill="#FEFECE" filter="url(#f1apd4yn4ggpo0)" rx="12" ry="12" style="stroke:#A80036;stroke-width:2.0;"/><ellipse cx="190.5" cy="83.1992" fill="#ADD8E6" rx="11" ry="11" style="stroke:none;stroke-width:1.0;"/><path d="M189.2935,79.3647 L189.2935,83.0005 L190.2979,83.0005 Q191.5015,83.0005 191.9871,82.5938 Q192.4727,82.187 192.4727,81.1826 Q192.4727,80.1782 191.9871,79.7715 Q191.5015,79.3647 190.2979,79.3647 Z M186.8447,77.3062 L190.2065,77.3062 Q192.7715,77.3062 193.8962,78.2192 Q195.021,79.1323 195.021,81.1826 Q195.021,83.2329 193.8962,84.146 Q192.7715,85.0591 190.2065,85.0591 L189.2935,85.0591 L189.2935,89.6992 L186.8447,89.6992 Z " fill="#000000"/><text fill="#000000" font-family="sans-serif" font-size="14" lengthAdjust="spacingAndGlyphs" textLength="77" x="207.5" y="85.7344">go-spector</text><ellipse cx="235" cy="56.1992" fill="#FEFECE" filter="url(#f1apd4yn4ggpo0)" rx="12" ry="12" style="stroke:#A80036;stroke-width:2.0;"/><polygon fill="#A80036" points="231,44.1992,237,39.1992,235,44.1992,237,49.1992,231,44.1992" style="stroke:#A80036;stroke-width:1.0;"/><ellipse cx="190.5" cy="954.3418" fill="#ADD8E6" rx="11" ry="11" style="stroke:none;stroke-width:1.0;"/><path d="M189.2935,950.5073 L189.2935,954.1431 L190.2979,954.1431 Q191.5015,954.1431 191.9871,953.7363 Q192.4727,953.3296 192.4727,952.3252 Q192.4727,951.3208 191.9871,950.9141 Q191.5015,950.5073 190.2979,950.5073 Z M186.8447,948.4487 L190.2065,948.4487 Q192.7715,948.4487 193.8962,949.3618 Q195.021,950.2749 195.021,952.3252 Q195.021,954.3755 193.8962,955.2886 Q192.7715,956.2017 190.2065,956.2017 L189.2935,956.2017 L189.2935,960.8418 L186.8447,960.8418 Z " fill="#000000"/><text fill="#000000" font-family="sans-serif" font-size="14" lengthAdjust="spacingAndGlyphs" textLength="77" x="207.5" y="956.877">go-spector</text><ellipse cx="235" cy="981.3418" fill="#FEFECE" filter="url(#f1apd4yn4ggpo0)" rx="12" ry="12" style="stroke:#A80036;stroke-width:2.0;"/><polygon fill="#A80036" points="231,969.3418,237,964.3418,235,969.3418,237,974.3418,231,969.3418" style="stroke:#A80036;stroke-width:1.0;"/><ellipse cx="376.5" cy="83.1992" fill="#ADD8E6" rx="11" ry="11" style="stroke:none;stroke-width:1.0;"/><path d="M375.2935,79.3647 L375.2935,83.0005 L376.2979,83.0005 Q377.5015,83.0005 377.9871,82.5938 Q378.4727,82.187 378.4727,81.1826 Q378.4727,80.1782 377.9871,79.7715 Q377.5015,79.3647 376.2979,79.3647 Z M372.8447,77.3062 L376.2065,77.3062 Q378.7715,77.3062 379.8962,78.2192 Q381.021,79.1323 381.021,81.1826 Q381.021,83.2329 379.8962,84.146 Q378.7715,85.0591 376.2065,85.0591 L375.2935,85.0591 L375.2935,89.6992 L372.8447,89.6992 Z " fill="#000000"/><text fill="#000000" font-family="sans-serif" font-size="14" lengthAdjust="spacingAndGlyphs" textLength="67" x="393.5" y="85.7344">validators</text><ellipse cx="416" cy="56.1992" fill="#FEFECE" filter="url(#f1apd4yn4ggpo0)" rx="12" ry="12" style="stroke:#A80036;stroke-width:2.0;"/><polygon fill="#A80036" points="412,44.1992,418,39.1992,416,44.1992,418,49.1992,412,44.1992" style="stroke:#A80036;stroke-width:1.0;"/><ellipse cx="376.5" cy="954.3418" fill="#ADD8E6" rx="11" ry="11" style="stroke:none;stroke-width:1.0;"/><path d="M375.2935,950.5073 L375.2935,954.1431 L376.2979,954.1431 Q377.5015,954.1431 377.9871,953.7363 Q378.4727,953.3296 378.4727,952.3252 Q378.4727,951.3208 377.9871,950.9141 Q377.5015,950.5073 376.2979,950.5073 Z M372.8447,948.4487 L376.2065,948.4487 Q378.7715,948.4487 379.8962,949.3618 Q381.021,950.2749 381.021,952.3252 Q381.021,954.3755 379.8962,955.2886 Q378.7715,956.2017 376.2065,956.2017 L375.2935,956.2017 L375.2935,960.8418 L372.8447,960.8418 Z " fill="#000000"/><text fill="#000000" font-family="sans-serif" font-size="14" lengthAdjust="spacingAndGlyphs" textLength="67" x="393.5" y="956.877">validators</text><ellipse cx="416" cy="981.3418" fill="#FEFECE" filter="url(#f1apd4yn4ggpo0)" rx="12" ry="12" style="stroke:#A80036;stroke-width:2.0;"/><polygon fill="#A80036" points="412,969.3418,418,964.3418,416,969.3418,418,974.3418,412,969.3418" style="stroke:#A80036;stroke-width:1.0;"/><rect fill="#FEFECE" filter="url(#f1apd4yn4ggpo0)" height="36" style="stroke:#A80036;stroke-width:1.5;" width="123" x="480.5" y="49.1992"/><rect fill="#FEFECE" filter="url(#f1apd4yn4ggpo0)" height="36" style="stroke:#A80036;stroke-width:1.5;" width="123" x="476.5" y="53.1992"/><ellipse cx="494.5" cy="71.1992" fill="#ADD8E6" rx="11" ry="11" style="stroke:#A80036;stroke-width:1.0;"/><path d="M493.2935,67.3647 L493.2935,71.0005 L494.2979,71.0005 Q495.5015,71.0005 495.9871,70.5938 Q496.4727,70.187 496.4727,69.1826 Q496.4727,68.1782 495.9871,67.7715 Q495.5015,67.3647 494.2979,67.3647 Z M490.8447,65.3062 L494.2065,65.3062 Q496.7715,65.3062 497.8962,66.2192 Q499.021,67.1323 499.021,69.1826 Q499.021,71.2329 497.8962,72.146 Q496.7715,73.0591 494.2065,73.0591 L493.2935,73.0591 L493.2935,77.6992 L490.8447,77.6992 Z " fill="#000000"/><text fill="#000000" font-family="sans-serif" font-size="14" lengthAdjust="spacingAndGlyphs" textLength="81" x="511.5" y="73.7344">validators/*</text><rect fill="#FEFECE" filter="url(#f1apd4yn4ggpo0)" height="36" style="stroke:#A80036;stroke-width:1.5;" width="123" x="480.5" y="943.3418"/><rect fill="#FEFECE" filter="url(#f1apd4yn4ggpo0)" height="36" style="stroke:#A80036;stroke-width:1.5;" width="123" x="476.5" y="947.3418"/><ellipse cx="494.5" cy="965.3418" fill="#ADD8E6" rx="11" ry="11" style="stroke:#A80036;stroke-width:1.0;"/><path d="M493.2935,961.5073 L493.2935,965.1431 L494.2979,965.1431 Q495.5015,965.1431 495.9871,964.7363 Q496.4727,964.3296 496.4727,963.3252 Q496.4727,962.3208 495.9871,961.9141 Q495.5015,961.5073 494.2979,961.5073 Z M490.8447,959.4487 L494.2065,959.4487 Q496.7715,959.4487 497.8962,960.3618 Q499.021,961.2749 499.021,963.3252 Q499.021,965.3755 497.8962,966.2886 Q496.7715,967.2017 494.2065,967.2017 L493.2935,967.2017 L493.2935,971.8418 L490.8447,971.8418 Z " fill="#000000"/><text fill="#000000" font-family="sans-serif" font-size="14" lengthAdjust="spacingAndGlyphs" textLength="81" x="511.5" y="967.877">validators/*</text><ellipse cx="628.5" cy="83.1992" fill="#ADD8E6" rx="11" ry="11" style="stroke:none;stroke-width:1.0;"/><path d="M627.2935,79.3647 L627.2935,83.0005 L628.2979,83.0005 Q629.5015,83.0005 629.9871,82.5938 Q630.4727,82.187 630.4727,81.1826 Q630.4727,80.1782 629.9871,79.7715 Q629.5015,79.3647 628.2979,79.3647 Z M624.8447,77.3062 L628.2065,77.3062 Q630.7715,77.3062 631.8962,78.2192 Q633.021,79.1323 633.021,81.1826 Q633.021,83.2329 631.8962,84.146 Q630.7715,85.0591 628.2065,85.0591 L627.2935,85.0591 L627.2935,89.6992 L624.8447,89.6992 Z " fill="#000000"/><text fill="#000000" font-family="sans-serif" font-size="14" lengthAdjust="spacingAndGlyphs" textLength="75" x="645.5" y="85.7344">generators</text><ellipse cx="672" cy="56.1992" fill="#FEFECE" filter="url(#f1apd4yn4ggpo0)" rx="12" ry="12" style="stroke:#A80036;stroke-width:2.0;"/><polygon fill="#A80036" points="668,44.1992,674,39.1992,672,44.1992,674,49.1992,668,44.1992" style="stroke:#A80036;stroke-width:1.0;"/><ellipse cx="628.5" cy="954.3418" fill="#ADD8E6" rx="11" ry="11" style="stroke:none;stroke-width:1.0;"/><path d="M627.2935,950.5073 L627.2935,954.1431 L628.2979,954.1431 Q629.5015,954.1431 629.9871,953.7363 Q630.4727,953.3296 630.4727,952.3252 Q630.4727,951.3208 629.9871,950.9141 Q629.5015,950.5073 628.2979,950.5073 Z M624.8447,948.4487 L628.2065,948.4487 Q630.7715,948.4487 631.8962,949.3618 Q633.021,950.2749 633.021,952.3252 Q633.021,954.3755 631.8962,955.2886 Q630.7715,956.2017 628.2065,956.2017 L627.2935,956.2017 L627.2935,960.8418 L624.8447,960.8418 Z " fill="#000000"/><text fill="#000000" font-family="sans-serif" font-size="14" lengthAdjust="spacingAndGlyphs" textLength="75" x="645.5" y="956.877">generators</text><ellipse cx="672" cy="981.3418" fill="#FEFECE" filter="url(#f1apd4yn4ggpo0)" rx="12" ry="12" style="stroke:#A80036;stroke-width:2.0;"/><polygon fill="#A80036" points="668,969.3418,674,964.3418,672,969.3418,674,974.3418,668,969.3418" style="stroke:#A80036;stroke-width:1.0;"/><rect fill="#FEFECE" filter="url(#f1apd4yn4ggpo0)" height="36" style="stroke:#A80036;stroke-width:1.5;" width="131" x="740.5" y="49.1992"/><rect fill="#FEFECE" filter="url(#f1apd4yn4ggpo0)" height="36" style="stroke:#A80036;stroke-width:1.5;" width="131" x="736.5" y="53.1992"/><ellipse cx="754.5" cy="71.1992" fill="#ADD8E6" rx="11" ry="11" style="stroke:#A80036;stroke-width:1.0;"/><path d="M753.2935,67.3647 L753.2935,71.0005 L754.2979,71.0005 Q755.5015,71.0005 755.9871,70.5938 Q756.4727,70.187 756.4727,69.1826 Q756.4727,68.1782 755.9871,67.7715 Q755.5015,67.3647 754.2979,67.3647 Z M750.8447,65.3062 L754.2065,65.3062 Q756.7715,65.3062 757.8962,66.2192 Q759.021,67.1323 759.021,69.1826 Q759.021,71.2329 757.8962,72.146 Q756.7715,73.0591 754.2065,73.0591 L753.2935,73.0591 L753.2935,77.6992 L750.8447,77.6992 Z " fill="#000000"/><text fill="#000000" font-family="sans-serif" font-size="14" lengthAdjust="spacingAndGlyphs" textLength="89" x="771.5" y="73.7344">generators/*</text><rect fill="#FEFECE" filter="url(#f1apd4yn4ggpo0)" height="36" style="stroke:#A80036;stroke-width:1.5;" width="131" x="740.5" y="943.3418"/><rect fill="#FEFECE" filter="url(#f1apd4yn4ggpo0)" height="36" style="stroke:#A80036;stroke-width:1.5;" width="131" x="736.5" y="947.3418"/><ellipse cx="754.5" cy="965.3418" fill="#ADD8E6" rx="11" ry="11" style="stroke:#A80036;stroke-width:1.0;"/><path d="M753.2935,961.5073 L753.2935,965.1431 L754.2979,965.1431 Q755.5015,965.1431 755.9871,964.7363 Q756.4727,964.3296 756.4727,963.3252 Q756.4727,962.3208 755.9871,961.9141 Q755.5015,961.5073 754.2979,961.5073 Z M750.8447,959.4487 L754.2065,959.4487 Q756.7715,959.4487 757.8962,960.3618 Q759.021,961.2749 759.021,963.3252 Q759.021,965.3755 757.8962,966.2886 Q756.7715,967.2017 754.2065,967.2017 L753.2935,967.2017 L753.2935,971.8418 L750.8447,971.8418 Z " fill="#000000"/><text fill="#000000" font-family="sans-serif" font-size="14" lengthAdjust="spacingAndGlyphs" textLength="89" x="771.5" y="967.877">generators/*</text><rect fill="#FFFFFF" filter="url(#f1apd4yn4ggpo0)" height="666.2793" style="stroke:#A80036;stroke-width:1.0;" width="10" x="49" y="260.0625"/><rect fill="#FFFFFF" filter="url(#f1apd4yn4ggpo0)" height="25" style="stroke:#A80036;stroke-width:1.0;" width="10" x="54" y="401.6152"/><rect fill="#FFFFFF" filter="url(#f1apd4yn4ggpo0)" height="25" style="stroke:#A80036;stroke-width:1.0;" width="10" x="54" y="495.2363"/><rect fill="#FFFFFF" filter="url(#f1apd4yn4ggpo0)" height="29.3105" style="stroke:#A80036;stroke-width:1.0;" width="10" x="230" y="334.9941"/><rect fill="#FFFFFF" filter="url(#f1apd4yn4ggpo0)" height="287.8633" style="stroke:#A80036;stroke-width:1.0;" width="10" x="230" y="556.5469"/><rect fill="#FFFFFF" filter="url(#f1apd4yn4ggpo0)" height="25" style="stroke:#A80036;stroke-width:1.0;" width="10" x="235" y="593.8574"/><rect fill="#FFFFFF" filter="url(#f1apd4yn4ggpo0)" height="88.6211" style="stroke:#A80036;stroke-width:1.0;" width="10" x="411" y="655.168"/><rect fill="#FFFFFF" filter="url(#f1apd4yn4ggpo0)" height="14" style="stroke:#A80036;stroke-width:1.0;" width="10" x="537" y="708.7891"/><rect fill="#FFFFFF" filter="url(#f1apd4yn4ggpo0)" height="57.3105" style="stroke:#A80036;stroke-width:1.0;" width="10" x="667" y="773.0996"/><rect fill="#FFFFFF" filter="url(#f1apd4yn4ggpo0)" height="14" style="stroke:#A80036;stroke-width:1.0;" width="10" x="801" y="802.4102"/><rect fill="#FFFFFF" filter="url(#f1apd4yn4ggpo0)" height="40.6211" style="stroke:#000000;stroke-width:2.0;" width="857.5" x="17" y="104.1992"/><polygon fill="#EEEEEE" points="17,104.1992,81,104.1992,81,111.1992,71,121.1992,17,121.1992,17,104.1992" style="stroke:#000000;stroke-width:2.0;"/><text fill="#000000" font-family="sans-serif" font-size="13" font-weight="bold" lengthAdjust="spacingAndGlyphs" textLength="19" x="30" y="118.7676">ref</text><text fill="#000000" font-family="sans-serif" font-size="13" lengthAdjust="spacingAndGlyphs" textLength="65" x="415.25" y="137.7676">import-v0</text><rect fill="#FFFFFF" filter="url(#f1apd4yn4ggpo0)" height="40.6211" style="stroke:#000000;stroke-width:2.0;" width="857.5" x="17" y="149.8203"/><polygon fill="#EEEEEE" points="17,149.8203,81,149.8203,81,156.8203,71,166.8203,17,166.8203,17,149.8203" style="stroke:#000000;stroke-width:2.0;"/><text fill="#000000" font-family="sans-serif" font-size="13" font-weight="bold" lengthAdjust="spacingAndGlyphs" textLength="19" x="30" y="164.3887">ref</text><text fill="#000000" font-family="sans-serif" font-size="13" lengthAdjust="spacingAndGlyphs" textLength="44" x="425.75" y="183.3887">init-v0</text><rect fill="#EEEEEE" filter="url(#f1apd4yn4ggpo0)" height="3" style="stroke:#EEEEEE;stroke-width:1.0;" width="895.5" x="0" y="216.0967"/><line style="stroke:#000000;stroke-width:1.0;" x1="0" x2="895.5" y1="216.0967" y2="216.0967"/><line style="stroke:#000000;stroke-width:1.0;" x1="0" x2="895.5" y1="219.0967" y2="219.0967"/><rect fill="#EEEEEE" filter="url(#f1apd4yn4ggpo0)" height="23.3105" style="stroke:#000000;stroke-width:2.0;" width="52" x="421.75" y="205.4414"/><text fill="#000000" font-family="sans-serif" font-size="13" font-weight="bold" lengthAdjust="spacingAndGlyphs" textLength="34" x="427.75" y="222.0098">main</text><polygon fill="#A80036" points="37,256.0625,47,260.0625,37,264.0625,41,260.0625" style="stroke:#A80036;stroke-width:1.0;"/><line style="stroke:#A80036;stroke-width:1.0;" x1="8" x2="43" y1="260.0625" y2="260.0625"/><text fill="#000000" font-family="sans-serif" font-size="13" lengthAdjust="spacingAndGlyphs" textLength="27" x="15" y="255.3203">args</text><rect fill="#FFFFFF" filter="url(#f1apd4yn4ggpo0)" height="40.6211" style="stroke:#000000;stroke-width:2.0;" width="118" x="17" y="268.0625"/><polygon fill="#EEEEEE" points="17,268.0625,81,268.0625,81,275.0625,71,285.0625,17,285.0625,17,268.0625" style="stroke:#000000;stroke-width:2.0;"/><text fill="#000000" font-family="sans-serif" font-size="13" font-weight="bold" lengthAdjust="spacingAndGlyphs" textLength="19" x="30" y="282.6309">ref</text><text fill="#000000" font-family="sans-serif" font-size="13" lengthAdjust="spacingAndGlyphs" textLength="110" x="23" y="301.6309">read template file</text><polygon fill="#A80036" points="218,330.9941,228,334.9941,218,338.9941,222,334.9941" style="stroke:#A80036;stroke-width:1.0;"/><line style="stroke:#A80036;stroke-width:1.0;" x1="59" x2="224" y1="334.9941" y2="334.9941"/><text fill="#000000" font-family="sans-serif" font-size="13" lengthAdjust="spacingAndGlyphs" textLength="54" x="66" y="330.252">Initialize</text><polygon fill="#A80036" points="70,360.3047,60,364.3047,70,368.3047,66,364.3047" style="stroke:#A80036;stroke-width:1.0;"/><line style="stroke:#A80036;stroke-width:1.0;stroke-dasharray:2.0,2.0;" x1="64" x2="234" y1="364.3047" y2="364.3047"/><text fill="#000000" font-family="sans-serif" font-size="13" lengthAdjust="spacingAndGlyphs" textLength="53" x="76" y="359.5625">instance</text><line style="stroke:#A80036;stroke-width:1.0;" x1="59" x2="106" y1="388.6152" y2="388.6152"/><line style="stroke:#A80036;stroke-width:1.0;" x1="106" x2="106" y1="388.6152" y2="401.6152"/><line style="stroke:#A80036;stroke-width:1.0;" x1="65" x2="106" y1="401.6152" y2="401.6152"/><polygon fill="#A80036" points="75,397.6152,65,401.6152,75,405.6152,71,401.6152" style="stroke:#A80036;stroke-width:1.0;"/><text fill="#000000" font-family="sans-serif" font-size="13" lengthAdjust="spacingAndGlyphs" textLength="157" x="71" y="383.873">search specification files</text><line style="stroke:#A80036;stroke-width:1.0;stroke-dasharray:2.0,2.0;" x1="64" x2="106" y1="425.6152" y2="425.6152"/><line style="stroke:#A80036;stroke-width:1.0;stroke-dasharray:2.0,2.0;" x1="106" x2="106" y1="425.6152" y2="438.6152"/><line style="stroke:#A80036;stroke-width:1.0;stroke-dasharray:2.0,2.0;" x1="59" x2="106" y1="438.6152" y2="438.6152"/><polygon fill="#A80036" points="69,434.6152,59,438.6152,69,442.6152,65,438.6152" style="stroke:#A80036;stroke-width:1.0;"/><path d="M10,448.6152 L84,448.6152 L84,455.6152 L74,465.6152 L10,465.6152 L10,448.6152 " fill="#EEEEEE" style="stroke:#000000;stroke-width:1.0;"/><rect fill="none" height="449.416" style="stroke:#000000;stroke-width:2.0;" width="875.5" x="10" y="448.6152"/><text fill="#000000" font-family="sans-serif" font-size="13" font-weight="bold" lengthAdjust="spacingAndGlyphs" textLength="29" x="25" y="462.1836">loop</text><text fill="#000000" font-family="sans-serif" font-size="11" font-weight="bold" lengthAdjust="spacingAndGlyphs" textLength="109" x="99" y="461.25">[specification files]</text><line style="stroke:#A80036;stroke-width:1.0;" x1="59" x2="106" y1="482.2363" y2="482.2363"/><line style="stroke:#A80036;stroke-width:1.0;" x1="106" x2="106" y1="482.2363" y2="495.2363"/><line style="stroke:#A80036;stroke-width:1.0;" x1="65" x2="106" y1="495.2363" y2="495.2363"/><polygon fill="#A80036" points="75,491.2363,65,495.2363,75,499.2363,71,495.2363" style="stroke:#A80036;stroke-width:1.0;"/><text fill="#000000" font-family="sans-serif" font-size="13" lengthAdjust="spacingAndGlyphs" textLength="136" x="71" y="477.4941">read specification file</text><line style="stroke:#A80036;stroke-width:1.0;stroke-dasharray:2.0,2.0;" x1="64" x2="106" y1="519.2363" y2="519.2363"/><line style="stroke:#A80036;stroke-width:1.0;stroke-dasharray:2.0,2.0;" x1="106" x2="106" y1="519.2363" y2="532.2363"/><line style="stroke:#A80036;stroke-width:1.0;stroke-dasharray:2.0,2.0;" x1="59" x2="106" y1="532.2363" y2="532.2363"/><polygon fill="#A80036" points="69,528.2363,59,532.2363,69,536.2363,65,532.2363" style="stroke:#A80036;stroke-width:1.0;"/><polygon fill="#A80036" points="218,552.5469,228,556.5469,218,560.5469,222,556.5469" style="stroke:#A80036;stroke-width:1.0;"/><line style="stroke:#A80036;stroke-width:1.0;" x1="59" x2="224" y1="556.5469" y2="556.5469"/><text fill="#000000" font-family="sans-serif" font-size="13" lengthAdjust="spacingAndGlyphs" textLength="65" x="66" y="551.8047">Transform</text><line style="stroke:#A80036;stroke-width:1.0;" x1="240" x2="287" y1="580.8574" y2="580.8574"/><line style="stroke:#A80036;stroke-width:1.0;" x1="287" x2="287" y1="580.8574" y2="593.8574"/><line style="stroke:#A80036;stroke-width:1.0;" x1="246" x2="287" y1="593.8574" y2="593.8574"/><polygon fill="#A80036" points="256,589.8574,246,593.8574,256,597.8574,252,593.8574" style="stroke:#A80036;stroke-width:1.0;"/><text fill="#000000" font-family="sans-serif" font-size="13" lengthAdjust="spacingAndGlyphs" textLength="157" x="252" y="576.1152">identify specification API</text><line style="stroke:#A80036;stroke-width:1.0;stroke-dasharray:2.0,2.0;" x1="245" x2="287" y1="617.8574" y2="617.8574"/><line style="stroke:#A80036;stroke-width:1.0;stroke-dasharray:2.0,2.0;" x1="287" x2="287" y1="617.8574" y2="630.8574"/><line style="stroke:#A80036;stroke-width:1.0;stroke-dasharray:2.0,2.0;" x1="240" x2="287" y1="630.8574" y2="630.8574"/><polygon fill="#A80036" points="250,626.8574,240,630.8574,250,634.8574,246,630.8574" style="stroke:#A80036;stroke-width:1.0;"/><polygon fill="#A80036" points="399,651.168,409,655.168,399,659.168,403,655.168" style="stroke:#A80036;stroke-width:1.0;"/><line style="stroke:#A80036;stroke-width:1.0;" x1="240" x2="405" y1="655.168" y2="655.168"/><text fill="#000000" font-family="sans-serif" font-size="13" lengthAdjust="spacingAndGlyphs" textLength="50" x="247" y="650.4258">Validate</text><path d="M355.5,670.168 L429.5,670.168 L429.5,677.168 L419.5,687.168 L355.5,687.168 L355.5,670.168 " fill="#EEEEEE" style="stroke:#000000;stroke-width:1.0;"/><rect fill="none" height="60.6211" style="stroke:#000000;stroke-width:2.0;" width="262" x="355.5" y="670.168"/><text fill="#000000" font-family="sans-serif" font-size="13" font-weight="bold" lengthAdjust="spacingAndGlyphs" textLength="29" x="370.5" y="683.7363">loop</text><text fill="#000000" font-family="sans-serif" font-size="11" font-weight="bold" lengthAdjust="spacingAndGlyphs" textLength="64" x="444.5" y="682.8027">[validators]</text><polygon fill="#A80036" points="525,704.7891,535,708.7891,525,712.7891,529,708.7891" style="stroke:#A80036;stroke-width:1.0;"/><line style="stroke:#A80036;stroke-width:1.0;" x1="421" x2="531" y1="708.7891" y2="708.7891"/><text fill="#000000" font-family="sans-serif" font-size="13" lengthAdjust="spacingAndGlyphs" textLength="50" x="428" y="704.0469">Validate</text><polygon fill="#A80036" points="432,718.7891,422,722.7891,432,726.7891,428,722.7891" style="stroke:#A80036;stroke-width:1.0;"/><line style="stroke:#A80036;stroke-width:1.0;stroke-dasharray:2.0,2.0;" x1="426" x2="541" y1="722.7891" y2="722.7891"/><polygon fill="#A80036" points="251,739.7891,241,743.7891,251,747.7891,247,743.7891" style="stroke:#A80036;stroke-width:1.0;"/><line style="stroke:#A80036;stroke-width:1.0;stroke-dasharray:2.0,2.0;" x1="245" x2="415" y1="743.7891" y2="743.7891"/><polygon fill="#A80036" points="655,769.0996,665,773.0996,655,777.0996,659,773.0996" style="stroke:#A80036;stroke-width:1.0;"/><line style="stroke:#A80036;stroke-width:1.0;" x1="240" x2="661" y1="773.0996" y2="773.0996"/><text fill="#000000" font-family="sans-serif" font-size="13" lengthAdjust="spacingAndGlyphs" textLength="55" x="247" y="768.3574">Generate</text><polygon fill="#A80036" points="789,798.4102,799,802.4102,789,806.4102,793,802.4102" style="stroke:#A80036;stroke-width:1.0;"/><line style="stroke:#A80036;stroke-width:1.0;" x1="677" x2="795" y1="802.4102" y2="802.4102"/><text fill="#000000" font-family="sans-serif" font-size="13" lengthAdjust="spacingAndGlyphs" textLength="55" x="684" y="797.668">Generate</text><polygon fill="#A80036" points="688,812.4102,678,816.4102,688,820.4102,684,816.4102" style="stroke:#A80036;stroke-width:1.0;"/><line style="stroke:#A80036;stroke-width:1.0;stroke-dasharray:2.0,2.0;" x1="682" x2="805" y1="816.4102" y2="816.4102"/><polygon fill="#A80036" points="251,826.4102,241,830.4102,251,834.4102,247,830.4102" style="stroke:#A80036;stroke-width:1.0;"/><line style="stroke:#A80036;stroke-width:1.0;stroke-dasharray:2.0,2.0;" x1="245" x2="671" y1="830.4102" y2="830.4102"/><polygon fill="#A80036" points="70,840.4102,60,844.4102,70,848.4102,66,844.4102" style="stroke:#A80036;stroke-width:1.0;"/><line style="stroke:#A80036;stroke-width:1.0;stroke-dasharray:2.0,2.0;" x1="64" x2="234" y1="844.4102" y2="844.4102"/><rect fill="#FFFFFF" filter="url(#f1apd4yn4ggpo0)" height="40.6211" style="stroke:#000000;stroke-width:2.0;" width="116" x="17" y="852.4102"/><polygon fill="#EEEEEE" points="17,852.4102,81,852.4102,81,859.4102,71,869.4102,17,869.4102,17,852.4102" style="stroke:#000000;stroke-width:2.0;"/><text fill="#000000" font-family="sans-serif" font-size="13" font-weight="bold" lengthAdjust="spacingAndGlyphs" textLength="19" x="30" y="866.9785">ref</text><text fill="#000000" font-family="sans-serif" font-size="13" lengthAdjust="spacingAndGlyphs" textLength="108" x="23" y="885.9785">write source files</text><polygon fill="#A80036" points="11,922.3418,1,926.3418,11,930.3418,7,926.3418" style="stroke:#A80036;stroke-width:1.0;"/><line style="stroke:#A80036;stroke-width:1.0;stroke-dasharray:2.0,2.0;" x1="5" x2="53" y1="926.3418" y2="926.3418"/><text fill="#000000" font-family="sans-serif" font-size="13" lengthAdjust="spacingAndGlyphs" textLength="30" x="17" y="921.5996">error</text><!--MD5=[a9459b1e94028d84a79f2804098fa018]
@startuml sequence
autoactivate on

' %false(): replace external sections with refs
' %true(): fully import all subgraphs bodies
!$compact = %true()

' components
!include components-v0.iuml

' import
!if ($compact == %true())
ref over Main, GeneratorsCollection: import-v0
!else
== import ==
!include import-v0.puml
!endif

' init
!if ($compact == %true())
ref over Main, GeneratorsCollection: init-v0
!else
== init ==
!include init-v0.puml
!endif

' main
== main ==
?-> Main : args

ref over Main : read template file

Main -> GoSpector : Initialize
return instance

Main -> Main : search specification files
return

loop specification files
  Main -> Main : read specification file
  return

  Main -> GoSpector : Transform
  GoSpector -> GoSpector : identify specification API
  return
  GoSpector -> Validators : Validate
    loop validators
      Validators -> ValidatorsCollection : Validate
      return
    end
  return

  GoSpector -> Generators : Generate
  Generators -> GeneratorsCollection : Generate
  return
  return
  return
  ref over Main : write source files
end


?<- - Main - - : error

title Go Spector CLI v0
@enduml

@startuml sequence
autoactivate on


boundary "main" as Main << (P,LightBlue) >>
control "go-spector" as GoSpector << (P,LightBlue) >>
control "validators" as Validators << (P,LightBlue) >>
collections "validators/*" as ValidatorsCollection << (P,LightBlue) >>
control "generators" as Generators << (P,LightBlue) >>
collections "generators/*" as GeneratorsCollection << (P,LightBlue) >>

ref over Main, GeneratorsCollection: import-v0

ref over Main, GeneratorsCollection: init-v0

== main ==
?-> Main : args

ref over Main : read template file

Main -> GoSpector : Initialize
return instance

Main -> Main : search specification files
return

loop specification files
  Main -> Main : read specification file
  return

  Main -> GoSpector : Transform
  GoSpector -> GoSpector : identify specification API
  return
  GoSpector -> Validators : Validate
    loop validators
      Validators -> ValidatorsCollection : Validate
      return
    end
  return

  GoSpector -> Generators : Generate
  Generators -> GeneratorsCollection : Generate
  return
  return
  return
  ref over Main : write source files
end


?<- - Main - - : error

title Go Spector CLI v0
@enduml

PlantUML version 1.2020.26(Mon Dec 21 18:45:07 CET 2020)
(GPL source distribution)
Java Runtime: Java(TM) SE Runtime Environment
JVM: Java HotSpot(TM) 64-Bit Server VM
Default Encoding: UTF-8
Language: en
Country: NL
--></g></svg>