<?xml version="1.0" encoding="UTF-8" standalone="no"?><svg xmlns="http://www.w3.org/2000/svg" xmlns:xlink="http://www.w3.org/1999/xlink" contentScriptType="application/ecmascript" contentStyleType="text/css" height="376px" preserveAspectRatio="none" style="width:716px;height:376px;" version="1.1" viewBox="0 0 716 376" width="716px" zoomAndPan="magnify"><defs><filter height="300%" id="f1u50r05tn99sv" width="300%" x="-1" y="-1"><feGaussianBlur result="blurOut" stdDeviation="2.0"/><feColorMatrix in="blurOut" result="blurOut2" type="matrix" values="0 0 0 0 0 0 0 0 0 0 0 0 0 0 0 0 0 0 .4 0"/><feOffset dx="4.0" dy="4.0" in="blurOut2" result="blurOut3"/><feBlend in="SourceGraphic" in2="blurOut3" mode="normal"/></filter></defs><g><text fill="#000000" font-family="sans-serif" font-size="18" lengthAdjust="spacingAndGlyphs" textLength="227" x="245" y="26.708">Go Spector CLI import v0</text><line style="stroke: #A80036; stroke-width: 1.0; stroke-dasharray: 5.0,5.0;" x1="41" x2="41" y1="91.9531" y2="315.8828"/><line style="stroke: #A80036; stroke-width: 1.0; stroke-dasharray: 5.0,5.0;" x1="140" x2="140" y1="91.9531" y2="315.8828"/><line style="stroke: #A80036; stroke-width: 1.0; stroke-dasharray: 5.0,5.0;" x1="254" x2="254" y1="91.9531" y2="315.8828"/><line style="stroke: #A80036; stroke-width: 1.0; stroke-dasharray: 5.0,5.0;" x1="377" x2="377" y1="91.9531" y2="315.8828"/><line style="stroke: #A80036; stroke-width: 1.0; stroke-dasharray: 5.0,5.0;" x1="506" x2="506" y1="91.9531" y2="315.8828"/><line style="stroke: #A80036; stroke-width: 1.0; stroke-dasharray: 5.0,5.0;" x1="640" x2="640" y1="91.9531" y2="315.8828"/><ellipse cx="19" cy="80.9531" fill="#ADD8E6" rx="11" ry="11" style="stroke: none; stroke-width: 1.0;"/><path d="M18.7969,76.625 L18.7969,80.25 L19.7969,80.25 Q21,80.25 21.4844,79.8438 Q21.9688,79.4375 21.9688,78.4375 Q21.9688,77.4375 21.4844,77.0313 Q21,76.625 19.7969,76.625 L18.7969,76.625 Z M16.3438,74.5625 L19.7031,74.5625 Q22.2656,74.5625 23.3906,75.4844 Q24.5156,76.3906 24.5156,78.4375 Q24.5156,80.4844 23.3906,81.4063 Q22.2656,82.3125 19.7031,82.3125 L18.7969,82.3125 L18.7969,86.9531 L16.3438,86.9531 L16.3438,74.5625 Z "/><text fill="#000000" font-family="sans-serif" font-size="14" lengthAdjust="spacingAndGlyphs" textLength="33" x="36" y="82.9482">main</text><path d="M21,41.9531 L21,65.9531 M21,53.9531 L38,53.9531 " fill="none" filter="url(#f1u50r05tn99sv)" style="stroke: #A80036; stroke-width: 2.0;"/><ellipse cx="50" cy="53.9531" fill="#FEFECE" filter="url(#f1u50r05tn99sv)" rx="12" ry="12" style="stroke: #A80036; stroke-width: 2.0;"/><ellipse cx="19" cy="325.8828" fill="#ADD8E6" rx="11" ry="11" style="stroke: none; stroke-width: 1.0;"/><path d="M18.7969,321.5547 L18.7969,325.1797 L19.7969,325.1797 Q21,325.1797 21.4844,324.7734 Q21.9688,324.3672 21.9688,323.3672 Q21.9688,322.3672 21.4844,321.9609 Q21,321.5547 19.7969,321.5547 L18.7969,321.5547 Z M16.3438,319.4922 L19.7031,319.4922 Q22.2656,319.4922 23.3906,320.4141 Q24.5156,321.3203 24.5156,323.3672 Q24.5156,325.4141 23.3906,326.3359 Q22.2656,327.2422 19.7031,327.2422 L18.7969,327.2422 L18.7969,331.8828 L16.3438,331.8828 L16.3438,319.4922 Z "/><text fill="#000000" font-family="sans-serif" font-size="14" lengthAdjust="spacingAndGlyphs" textLength="33" x="36" y="327.8779">main</text><path d="M21,340.8828 L21,364.8828 M21,352.8828 L38,352.8828 " fill="none" filter="url(#f1u50r05tn99sv)" style="stroke: #A80036; stroke-width: 2.0;"/><ellipse cx="50" cy="352.8828" fill="#FEFECE" filter="url(#f1u50r05tn99sv)" rx="12" ry="12" style="stroke: #A80036; stroke-width: 2.0;"/><ellipse cx="96" cy="80.9531" fill="#ADD8E6" rx="11" ry="11" style="stroke: none; stroke-width: 1.0;"/><path d="M95.7969,76.625 L95.7969,80.25 L96.7969,80.25 Q98,80.25 98.4844,79.8438 Q98.9688,79.4375 98.9688,78.4375 Q98.9688,77.4375 98.4844,77.0313 Q98,76.625 96.7969,76.625 L95.7969,76.625 Z M93.3438,74.5625 L96.7031,74.5625 Q99.2656,74.5625 100.3906,75.4844 Q101.5156,76.3906 101.5156,78.4375 Q101.5156,80.4844 100.3906,81.4063 Q99.2656,82.3125 96.7031,82.3125 L95.7969,82.3125 L95.7969,86.9531 L93.3438,86.9531 L93.3438,74.5625 Z "/><text fill="#000000" font-family="sans-serif" font-size="14" lengthAdjust="spacingAndGlyphs" textLength="76" x="113" y="82.9482">go-spector</text><ellipse cx="140" cy="53.9531" fill="#FEFECE" filter="url(#f1u50r05tn99sv)" rx="12" ry="12" style="stroke: #A80036; stroke-width: 2.0;"/><polygon fill="#A80036" points="136,41.9531,142,36.9531,140,41.9531,142,46.9531,136,41.9531" style="stroke: #A80036; stroke-width: 1.0;"/><ellipse cx="96" cy="325.8828" fill="#ADD8E6" rx="11" ry="11" style="stroke: none; stroke-width: 1.0;"/><path d="M95.7969,321.5547 L95.7969,325.1797 L96.7969,325.1797 Q98,325.1797 98.4844,324.7734 Q98.9688,324.3672 98.9688,323.3672 Q98.9688,322.3672 98.4844,321.9609 Q98,321.5547 96.7969,321.5547 L95.7969,321.5547 Z M93.3438,319.4922 L96.7031,319.4922 Q99.2656,319.4922 100.3906,320.4141 Q101.5156,321.3203 101.5156,323.3672 Q101.5156,325.4141 100.3906,326.3359 Q99.2656,327.2422 96.7031,327.2422 L95.7969,327.2422 L95.7969,331.8828 L93.3438,331.8828 L93.3438,319.4922 Z "/><text fill="#000000" font-family="sans-serif" font-size="14" lengthAdjust="spacingAndGlyphs" textLength="76" x="113" y="327.8779">go-spector</text><ellipse cx="140" cy="352.8828" fill="#FEFECE" filter="url(#f1u50r05tn99sv)" rx="12" ry="12" style="stroke: #A80036; stroke-width: 2.0;"/><polygon fill="#A80036" points="136,340.8828,142,335.8828,140,340.8828,142,345.8828,136,340.8828" style="stroke: #A80036; stroke-width: 1.0;"/><ellipse cx="216" cy="80.9531" fill="#ADD8E6" rx="11" ry="11" style="stroke: none; stroke-width: 1.0;"/><path d="M215.7969,76.625 L215.7969,80.25 L216.7969,80.25 Q218,80.25 218.4844,79.8438 Q218.9688,79.4375 218.9688,78.4375 Q218.9688,77.4375 218.4844,77.0313 Q218,76.625 216.7969,76.625 L215.7969,76.625 Z M213.3438,74.5625 L216.7031,74.5625 Q219.2656,74.5625 220.3906,75.4844 Q221.5156,76.3906 221.5156,78.4375 Q221.5156,80.4844 220.3906,81.4063 Q219.2656,82.3125 216.7031,82.3125 L215.7969,82.3125 L215.7969,86.9531 L213.3438,86.9531 L213.3438,74.5625 Z "/><text fill="#000000" font-family="sans-serif" font-size="14" lengthAdjust="spacingAndGlyphs" textLength="65" x="233" y="82.9482">validators</text><ellipse cx="254.5" cy="53.9531" fill="#FEFECE" filter="url(#f1u50r05tn99sv)" rx="12" ry="12" style="stroke: #A80036; stroke-width: 2.0;"/><polygon fill="#A80036" points="250.5,41.9531,256.5,36.9531,254.5,41.9531,256.5,46.9531,250.5,41.9531" style="stroke: #A80036; stroke-width: 1.0;"/><ellipse cx="216" cy="325.8828" fill="#ADD8E6" rx="11" ry="11" style="stroke: none; stroke-width: 1.0;"/><path d="M215.7969,321.5547 L215.7969,325.1797 L216.7969,325.1797 Q218,325.1797 218.4844,324.7734 Q218.9688,324.3672 218.9688,323.3672 Q218.9688,322.3672 218.4844,321.9609 Q218,321.5547 216.7969,321.5547 L215.7969,321.5547 Z M213.3438,319.4922 L216.7031,319.4922 Q219.2656,319.4922 220.3906,320.4141 Q221.5156,321.3203 221.5156,323.3672 Q221.5156,325.4141 220.3906,326.3359 Q219.2656,327.2422 216.7031,327.2422 L215.7969,327.2422 L215.7969,331.8828 L213.3438,331.8828 L213.3438,319.4922 Z "/><text fill="#000000" font-family="sans-serif" font-size="14" lengthAdjust="spacingAndGlyphs" textLength="65" x="233" y="327.8779">validators</text><ellipse cx="254.5" cy="352.8828" fill="#FEFECE" filter="url(#f1u50r05tn99sv)" rx="12" ry="12" style="stroke: #A80036; stroke-width: 2.0;"/><polygon fill="#A80036" points="250.5,340.8828,256.5,335.8828,254.5,340.8828,256.5,345.8828,250.5,340.8828" style="stroke: #A80036; stroke-width: 1.0;"/><rect fill="#FEFECE" filter="url(#f1u50r05tn99sv)" height="36" style="stroke: #A80036; stroke-width: 1.5;" width="119" x="318" y="46.9531"/><rect fill="#FEFECE" filter="url(#f1u50r05tn99sv)" height="36" style="stroke: #A80036; stroke-width: 1.5;" width="119" x="314" y="50.9531"/><ellipse cx="332" cy="68.9531" fill="#ADD8E6" rx="11" ry="11" style="stroke: #A80036; stroke-width: 1.0;"/><path d="M331.7969,64.625 L331.7969,68.25 L332.7969,68.25 Q334,68.25 334.4844,67.8438 Q334.9688,67.4375 334.9688,66.4375 Q334.9688,65.4375 334.4844,65.0313 Q334,64.625 332.7969,64.625 L331.7969,64.625 Z M329.3438,62.5625 L332.7031,62.5625 Q335.2656,62.5625 336.3906,63.4844 Q337.5156,64.3906 337.5156,66.4375 Q337.5156,68.4844 336.3906,69.4063 Q335.2656,70.3125 332.7031,70.3125 L331.7969,70.3125 L331.7969,74.9531 L329.3438,74.9531 L329.3438,62.5625 Z "/><text fill="#000000" font-family="sans-serif" font-size="14" lengthAdjust="spacingAndGlyphs" textLength="77" x="349" y="70.9482">validators/*</text><rect fill="#FEFECE" filter="url(#f1u50r05tn99sv)" height="36" style="stroke: #A80036; stroke-width: 1.5;" width="119" x="318" y="314.8828"/><rect fill="#FEFECE" filter="url(#f1u50r05tn99sv)" height="36" style="stroke: #A80036; stroke-width: 1.5;" width="119" x="314" y="318.8828"/><ellipse cx="332" cy="336.8828" fill="#ADD8E6" rx="11" ry="11" style="stroke: #A80036; stroke-width: 1.0;"/><path d="M331.7969,332.5547 L331.7969,336.1797 L332.7969,336.1797 Q334,336.1797 334.4844,335.7734 Q334.9688,335.3672 334.9688,334.3672 Q334.9688,333.3672 334.4844,332.9609 Q334,332.5547 332.7969,332.5547 L331.7969,332.5547 Z M329.3438,330.4922 L332.7031,330.4922 Q335.2656,330.4922 336.3906,331.4141 Q337.5156,332.3203 337.5156,334.3672 Q337.5156,336.4141 336.3906,337.3359 Q335.2656,338.2422 332.7031,338.2422 L331.7969,338.2422 L331.7969,342.8828 L329.3438,342.8828 L329.3438,330.4922 Z "/><text fill="#000000" font-family="sans-serif" font-size="14" lengthAdjust="spacingAndGlyphs" textLength="77" x="349" y="338.8779">validators/*</text><ellipse cx="462" cy="80.9531" fill="#ADD8E6" rx="11" ry="11" style="stroke: none; stroke-width: 1.0;"/><path d="M461.7969,76.625 L461.7969,80.25 L462.7969,80.25 Q464,80.25 464.4844,79.8438 Q464.9688,79.4375 464.9688,78.4375 Q464.9688,77.4375 464.4844,77.0313 Q464,76.625 462.7969,76.625 L461.7969,76.625 Z M459.3438,74.5625 L462.7031,74.5625 Q465.2656,74.5625 466.3906,75.4844 Q467.5156,76.3906 467.5156,78.4375 Q467.5156,80.4844 466.3906,81.4063 Q465.2656,82.3125 462.7031,82.3125 L461.7969,82.3125 L461.7969,86.9531 L459.3438,86.9531 L459.3438,74.5625 Z "/><text fill="#000000" font-family="sans-serif" font-size="14" lengthAdjust="spacingAndGlyphs" textLength="76" x="479" y="82.9482">generators</text><ellipse cx="506" cy="53.9531" fill="#FEFECE" filter="url(#f1u50r05tn99sv)" rx="12" ry="12" style="stroke: #A80036; stroke-width: 2.0;"/><polygon fill="#A80036" points="502,41.9531,508,36.9531,506,41.9531,508,46.9531,502,41.9531" style="stroke: #A80036; stroke-width: 1.0;"/><ellipse cx="462" cy="325.8828" fill="#ADD8E6" rx="11" ry="11" style="stroke: none; stroke-width: 1.0;"/><path d="M461.7969,321.5547 L461.7969,325.1797 L462.7969,325.1797 Q464,325.1797 464.4844,324.7734 Q464.9688,324.3672 464.9688,323.3672 Q464.9688,322.3672 464.4844,321.9609 Q464,321.5547 462.7969,321.5547 L461.7969,321.5547 Z M459.3438,319.4922 L462.7031,319.4922 Q465.2656,319.4922 466.3906,320.4141 Q467.5156,321.3203 467.5156,323.3672 Q467.5156,325.4141 466.3906,326.3359 Q465.2656,327.2422 462.7031,327.2422 L461.7969,327.2422 L461.7969,331.8828 L459.3438,331.8828 L459.3438,319.4922 Z "/><text fill="#000000" font-family="sans-serif" font-size="14" lengthAdjust="spacingAndGlyphs" textLength="76" x="479" y="327.8779">generators</text><ellipse cx="506" cy="352.8828" fill="#FEFECE" filter="url(#f1u50r05tn99sv)" rx="12" ry="12" style="stroke: #A80036; stroke-width: 2.0;"/><polygon fill="#A80036" points="502,340.8828,508,335.8828,506,340.8828,508,345.8828,502,340.8828" style="stroke: #A80036; stroke-width: 1.0;"/><rect fill="#FEFECE" filter="url(#f1u50r05tn99sv)" height="36" style="stroke: #A80036; stroke-width: 1.5;" width="130" x="575" y="46.9531"/><rect fill="#FEFECE" filter="url(#f1u50r05tn99sv)" height="36" style="stroke: #A80036; stroke-width: 1.5;" width="130" x="571" y="50.9531"/><ellipse cx="589" cy="68.9531" fill="#ADD8E6" rx="11" ry="11" style="stroke: #A80036; stroke-width: 1.0;"/><path d="M588.7969,64.625 L588.7969,68.25 L589.7969,68.25 Q591,68.25 591.4844,67.8438 Q591.9688,67.4375 591.9688,66.4375 Q591.9688,65.4375 591.4844,65.0313 Q591,64.625 589.7969,64.625 L588.7969,64.625 Z M586.3438,62.5625 L589.7031,62.5625 Q592.2656,62.5625 593.3906,63.4844 Q594.5156,64.3906 594.5156,66.4375 Q594.5156,68.4844 593.3906,69.4063 Q592.2656,70.3125 589.7031,70.3125 L588.7969,70.3125 L588.7969,74.9531 L586.3438,74.9531 L586.3438,62.5625 Z "/><text fill="#000000" font-family="sans-serif" font-size="14" lengthAdjust="spacingAndGlyphs" textLength="88" x="606" y="70.9482">generators/*</text><rect fill="#FEFECE" filter="url(#f1u50r05tn99sv)" height="36" style="stroke: #A80036; stroke-width: 1.5;" width="130" x="575" y="314.8828"/><rect fill="#FEFECE" filter="url(#f1u50r05tn99sv)" height="36" style="stroke: #A80036; stroke-width: 1.5;" width="130" x="571" y="318.8828"/><ellipse cx="589" cy="336.8828" fill="#ADD8E6" rx="11" ry="11" style="stroke: #A80036; stroke-width: 1.0;"/><path d="M588.7969,332.5547 L588.7969,336.1797 L589.7969,336.1797 Q591,336.1797 591.4844,335.7734 Q591.9688,335.3672 591.9688,334.3672 Q591.9688,333.3672 591.4844,332.9609 Q591,332.5547 589.7969,332.5547 L588.7969,332.5547 Z M586.3438,330.4922 L589.7031,330.4922 Q592.2656,330.4922 593.3906,331.4141 Q594.5156,332.3203 594.5156,334.3672 Q594.5156,336.4141 593.3906,337.3359 Q592.2656,338.2422 589.7031,338.2422 L588.7969,338.2422 L588.7969,342.8828 L586.3438,342.8828 L586.3438,330.4922 Z "/><text fill="#000000" font-family="sans-serif" font-size="14" lengthAdjust="spacingAndGlyphs" textLength="88" x="606" y="338.8779">generators/*</text><ellipse cx="41" cy="122.3359" fill="none" rx="4" ry="4" style="stroke: #A80036; stroke-width: 1.5;"/><line style="stroke: #A80036; stroke-width: 1.0;" x1="138" x2="128" y1="123.0859" y2="119.0859"/><line style="stroke: #A80036; stroke-width: 1.0;" x1="138" x2="128" y1="123.0859" y2="127.0859"/><line style="stroke: #A80036; stroke-width: 1.0; stroke-dasharray: 2.0,2.0;" x1="45.5" x2="139" y1="123.0859" y2="123.0859"/><text fill="#000000" font-family="sans-serif" font-size="13" lengthAdjust="spacingAndGlyphs" textLength="42" x="48.5" y="118.02">import</text><ellipse cx="139.5" cy="151.4688" fill="none" rx="4" ry="4" style="stroke: #A80036; stroke-width: 1.5;"/><line style="stroke: #A80036; stroke-width: 1.0;" x1="252.5" x2="242.5" y1="152.2188" y2="148.2188"/><line style="stroke: #A80036; stroke-width: 1.0;" x1="252.5" x2="242.5" y1="152.2188" y2="156.2188"/><line style="stroke: #A80036; stroke-width: 1.0; stroke-dasharray: 2.0,2.0;" x1="144" x2="253.5" y1="152.2188" y2="152.2188"/><text fill="#000000" font-family="sans-serif" font-size="13" lengthAdjust="spacingAndGlyphs" textLength="42" x="147" y="147.1528">import</text><ellipse cx="139.5" cy="180.6016" fill="none" rx="4" ry="4" style="stroke: #A80036; stroke-width: 1.5;"/><line style="stroke: #A80036; stroke-width: 1.0;" x1="375.5" x2="365.5" y1="181.3516" y2="177.3516"/><line style="stroke: #A80036; stroke-width: 1.0;" x1="375.5" x2="365.5" y1="181.3516" y2="185.3516"/><line style="stroke: #A80036; stroke-width: 1.0; stroke-dasharray: 2.0,2.0;" x1="144" x2="376.5" y1="181.3516" y2="181.3516"/><text fill="#000000" font-family="sans-serif" font-size="13" lengthAdjust="spacingAndGlyphs" textLength="42" x="147" y="176.2856">import</text><polygon fill="#A80036" points="265.5,206.4844,255.5,210.4844,265.5,214.4844,261.5,210.4844" style="stroke: #A80036; stroke-width: 1.0;"/><ellipse cx="377" cy="209.7344" fill="none" rx="4" ry="4" style="stroke: #A80036; stroke-width: 1.5;"/><line style="stroke: #A80036; stroke-width: 1.0; stroke-dasharray: 2.0,2.0;" x1="259.5" x2="372.5" y1="210.4844" y2="210.4844"/><text fill="#000000" font-family="sans-serif" font-size="13" lengthAdjust="spacingAndGlyphs" textLength="42" x="271.5" y="205.4185">import</text><ellipse cx="139.5" cy="238.8672" fill="none" rx="4" ry="4" style="stroke: #A80036; stroke-width: 1.5;"/><line style="stroke: #A80036; stroke-width: 1.0;" x1="504" x2="494" y1="239.6172" y2="235.6172"/><line style="stroke: #A80036; stroke-width: 1.0;" x1="504" x2="494" y1="239.6172" y2="243.6172"/><line style="stroke: #A80036; stroke-width: 1.0; stroke-dasharray: 2.0,2.0;" x1="144" x2="505" y1="239.6172" y2="239.6172"/><text fill="#000000" font-family="sans-serif" font-size="13" lengthAdjust="spacingAndGlyphs" textLength="42" x="147" y="234.5513">import</text><ellipse cx="139.5" cy="268" fill="none" rx="4" ry="4" style="stroke: #A80036; stroke-width: 1.5;"/><line style="stroke: #A80036; stroke-width: 1.0;" x1="638" x2="628" y1="268.75" y2="264.75"/><line style="stroke: #A80036; stroke-width: 1.0;" x1="638" x2="628" y1="268.75" y2="272.75"/><line style="stroke: #A80036; stroke-width: 1.0; stroke-dasharray: 2.0,2.0;" x1="144" x2="639" y1="268.75" y2="268.75"/><text fill="#000000" font-family="sans-serif" font-size="13" lengthAdjust="spacingAndGlyphs" textLength="42" x="147" y="263.6841">import</text><line style="stroke: #A80036; stroke-width: 1.0;" x1="506" x2="516" y1="297.8828" y2="293.8828"/><line style="stroke: #A80036; stroke-width: 1.0;" x1="506" x2="516" y1="297.8828" y2="301.8828"/><ellipse cx="639.5" cy="297.1328" fill="none" rx="4" ry="4" style="stroke: #A80036; stroke-width: 1.5;"/><line style="stroke: #A80036; stroke-width: 1.0; stroke-dasharray: 2.0,2.0;" x1="506" x2="635" y1="297.8828" y2="297.8828"/><text fill="#000000" font-family="sans-serif" font-size="13" lengthAdjust="spacingAndGlyphs" textLength="42" x="523" y="292.8169">import</text><!--MD5=[796a5fdca5ea08a548ed91412b37ec06]
@startuml
autoactivate on

boundary "main" as Main << (P,LightBlue) >>
control "go-spector" as GoSpector << (P,LightBlue) >>
control "validators" as Validators << (P,LightBlue) >>
collections "validators/*" as ValidatorsCollection << (P,LightBlue) >>
control "generators" as Generators << (P,LightBlue) >>
collections "generators/*" as GeneratorsCollection << (P,LightBlue) >>

Main o- ->> GoSpector : import
GoSpector o- ->> Validators : import
GoSpector o- ->> ValidatorsCollection : import
ValidatorsCollection o- -> Validators : import
GoSpector o- ->> Generators : import
GoSpector o- ->> GeneratorsCollection : import
GeneratorsCollection o- ->> Generators : import

title Go Spector CLI import v0
@enduml

PlantUML version 1.2020.02(Sun Mar 01 10:22:07 GMT 2020)
(GPL source distribution)
Java Runtime: OpenJDK Runtime Environment
JVM: OpenJDK 64-Bit Server VM
Java Version: 11.0.9+11-Ubuntu-0ubuntu1
Operating System: Linux
Default Encoding: ANSI_X3.4-1968
Language: en
Country: US
--></g></svg>