<?xml version="1.0" encoding="UTF-8" standalone="no"?><svg xmlns="http://www.w3.org/2000/svg" xmlns:xlink="http://www.w3.org/1999/xlink" contentScriptType="application/ecmascript" contentStyleType="text/css" height="397px" preserveAspectRatio="none" style="width:716px;height:397px;" version="1.1" viewBox="0 0 716 397" width="716px" zoomAndPan="magnify"><defs><filter height="300%" id="f1qml4wsfm7dix" width="300%" x="-1" y="-1"><feGaussianBlur result="blurOut" stdDeviation="2.0"/><feColorMatrix in="blurOut" result="blurOut2" type="matrix" values="0 0 0 0 0 0 0 0 0 0 0 0 0 0 0 0 0 0 .4 0"/><feOffset dx="4.0" dy="4.0" in="blurOut2" result="blurOut3"/><feBlend in="SourceGraphic" in2="blurOut3" mode="normal"/></filter></defs><g><text fill="#000000" font-family="sans-serif" font-size="18" lengthAdjust="spacingAndGlyphs" textLength="196" x="260.5" y="26.708">Go Spector CLI init v0</text><rect fill="#FFFFFF" filter="url(#f1qml4wsfm7dix)" height="14" style="stroke: #A80036; stroke-width: 1.0;" width="10" x="249.5" y="165.2188"/><rect fill="#FFFFFF" filter="url(#f1qml4wsfm7dix)" height="68.1328" style="stroke: #A80036; stroke-width: 1.0;" width="10" x="372.5" y="131.0859"/><rect fill="#FFFFFF" filter="url(#f1qml4wsfm7dix)" height="14" style="stroke: #A80036; stroke-width: 1.0;" width="10" x="501" y="277.4844"/><rect fill="#FFFFFF" filter="url(#f1qml4wsfm7dix)" height="68.1328" style="stroke: #A80036; stroke-width: 1.0;" width="10" x="635" y="243.3516"/><line style="stroke: #A80036; stroke-width: 1.0; stroke-dasharray: 5.0,5.0;" x1="41" x2="41" y1="91.9531" y2="336.4844"/><line style="stroke: #A80036; stroke-width: 1.0; stroke-dasharray: 5.0,5.0;" x1="140" x2="140" y1="91.9531" y2="336.4844"/><line style="stroke: #A80036; stroke-width: 1.0; stroke-dasharray: 5.0,5.0;" x1="254" x2="254" y1="91.9531" y2="336.4844"/><line style="stroke: #A80036; stroke-width: 1.0; stroke-dasharray: 5.0,5.0;" x1="377" x2="377" y1="91.9531" y2="336.4844"/><line style="stroke: #A80036; stroke-width: 1.0; stroke-dasharray: 5.0,5.0;" x1="506" x2="506" y1="91.9531" y2="336.4844"/><line style="stroke: #A80036; stroke-width: 1.0; stroke-dasharray: 5.0,5.0;" x1="640" x2="640" y1="91.9531" y2="336.4844"/><ellipse cx="19" cy="80.9531" fill="#ADD8E6" rx="11" ry="11" style="stroke: none; stroke-width: 1.0;"/><path d="M18.7969,76.625 L18.7969,80.25 L19.7969,80.25 Q21,80.25 21.4844,79.8438 Q21.9688,79.4375 21.9688,78.4375 Q21.9688,77.4375 21.4844,77.0313 Q21,76.625 19.7969,76.625 L18.7969,76.625 Z M16.3438,74.5625 L19.7031,74.5625 Q22.2656,74.5625 23.3906,75.4844 Q24.5156,76.3906 24.5156,78.4375 Q24.5156,80.4844 23.3906,81.4063 Q22.2656,82.3125 19.7031,82.3125 L18.7969,82.3125 L18.7969,86.9531 L16.3438,86.9531 L16.3438,74.5625 Z "/><text fill="#000000" font-family="sans-serif" font-size="14" lengthAdjust="spacingAndGlyphs" textLength="33" x="36" y="82.9482">main</text><path d="M21,41.9531 L21,65.9531 M21,53.9531 L38,53.9531 " fill="none" filter="url(#f1qml4wsfm7dix)" style="stroke: #A80036; stroke-width: 2.0;"/><ellipse cx="50" cy="53.9531" fill="#FEFECE" filter="url(#f1qml4wsfm7dix)" rx="12" ry="12" style="stroke: #A80036; stroke-width: 2.0;"/><ellipse cx="19" cy="346.4844" fill="#ADD8E6" rx="11" ry="11" style="stroke: none; stroke-width: 1.0;"/><path d="M18.7969,342.1563 L18.7969,345.7813 L19.7969,345.7813 Q21,345.7813 21.4844,345.375 Q21.9688,344.9688 21.9688,343.9688 Q21.9688,342.9688 21.4844,342.5625 Q21,342.1563 19.7969,342.1563 L18.7969,342.1563 Z M16.3438,340.0938 L19.7031,340.0938 Q22.2656,340.0938 23.3906,341.0156 Q24.5156,341.9219 24.5156,343.9688 Q24.5156,346.0156 23.3906,346.9375 Q22.2656,347.8438 19.7031,347.8438 L18.7969,347.8438 L18.7969,352.4844 L16.3438,352.4844 L16.3438,340.0938 Z "/><text fill="#000000" font-family="sans-serif" font-size="14" lengthAdjust="spacingAndGlyphs" textLength="33" x="36" y="348.4795">main</text><path d="M21,361.4844 L21,385.4844 M21,373.4844 L38,373.4844 " fill="none" filter="url(#f1qml4wsfm7dix)" style="stroke: #A80036; stroke-width: 2.0;"/><ellipse cx="50" cy="373.4844" fill="#FEFECE" filter="url(#f1qml4wsfm7dix)" rx="12" ry="12" style="stroke: #A80036; stroke-width: 2.0;"/><ellipse cx="96" cy="80.9531" fill="#ADD8E6" rx="11" ry="11" style="stroke: none; stroke-width: 1.0;"/><path d="M95.7969,76.625 L95.7969,80.25 L96.7969,80.25 Q98,80.25 98.4844,79.8438 Q98.9688,79.4375 98.9688,78.4375 Q98.9688,77.4375 98.4844,77.0313 Q98,76.625 96.7969,76.625 L95.7969,76.625 Z M93.3438,74.5625 L96.7031,74.5625 Q99.2656,74.5625 100.3906,75.4844 Q101.5156,76.3906 101.5156,78.4375 Q101.5156,80.4844 100.3906,81.4063 Q99.2656,82.3125 96.7031,82.3125 L95.7969,82.3125 L95.7969,86.9531 L93.3438,86.9531 L93.3438,74.5625 Z "/><text fill="#000000" font-family="sans-serif" font-size="14" lengthAdjust="spacingAndGlyphs" textLength="76" x="113" y="82.9482">go-spector</text><ellipse cx="140" cy="53.9531" fill="#FEFECE" filter="url(#f1qml4wsfm7dix)" rx="12" ry="12" style="stroke: #A80036; stroke-width: 2.0;"/><polygon fill="#A80036" points="136,41.9531,142,36.9531,140,41.9531,142,46.9531,136,41.9531" style="stroke: #A80036; stroke-width: 1.0;"/><ellipse cx="96" cy="346.4844" fill="#ADD8E6" rx="11" ry="11" style="stroke: none; stroke-width: 1.0;"/><path d="M95.7969,342.1563 L95.7969,345.7813 L96.7969,345.7813 Q98,345.7813 98.4844,345.375 Q98.9688,344.9688 98.9688,343.9688 Q98.9688,342.9688 98.4844,342.5625 Q98,342.1563 96.7969,342.1563 L95.7969,342.1563 Z M93.3438,340.0938 L96.7031,340.0938 Q99.2656,340.0938 100.3906,341.0156 Q101.5156,341.9219 101.5156,343.9688 Q101.5156,346.0156 100.3906,346.9375 Q99.2656,347.8438 96.7031,347.8438 L95.7969,347.8438 L95.7969,352.4844 L93.3438,352.4844 L93.3438,340.0938 Z "/><text fill="#000000" font-family="sans-serif" font-size="14" lengthAdjust="spacingAndGlyphs" textLength="76" x="113" y="348.4795">go-spector</text><ellipse cx="140" cy="373.4844" fill="#FEFECE" filter="url(#f1qml4wsfm7dix)" rx="12" ry="12" style="stroke: #A80036; stroke-width: 2.0;"/><polygon fill="#A80036" points="136,361.4844,142,356.4844,140,361.4844,142,366.4844,136,361.4844" style="stroke: #A80036; stroke-width: 1.0;"/><ellipse cx="216" cy="80.9531" fill="#ADD8E6" rx="11" ry="11" style="stroke: none; stroke-width: 1.0;"/><path d="M215.7969,76.625 L215.7969,80.25 L216.7969,80.25 Q218,80.25 218.4844,79.8438 Q218.9688,79.4375 218.9688,78.4375 Q218.9688,77.4375 218.4844,77.0313 Q218,76.625 216.7969,76.625 L215.7969,76.625 Z M213.3438,74.5625 L216.7031,74.5625 Q219.2656,74.5625 220.3906,75.4844 Q221.5156,76.3906 221.5156,78.4375 Q221.5156,80.4844 220.3906,81.4063 Q219.2656,82.3125 216.7031,82.3125 L215.7969,82.3125 L215.7969,86.9531 L213.3438,86.9531 L213.3438,74.5625 Z "/><text fill="#000000" font-family="sans-serif" font-size="14" lengthAdjust="spacingAndGlyphs" textLength="65" x="233" y="82.9482">validators</text><ellipse cx="254.5" cy="53.9531" fill="#FEFECE" filter="url(#f1qml4wsfm7dix)" rx="12" ry="12" style="stroke: #A80036; stroke-width: 2.0;"/><polygon fill="#A80036" points="250.5,41.9531,256.5,36.9531,254.5,41.9531,256.5,46.9531,250.5,41.9531" style="stroke: #A80036; stroke-width: 1.0;"/><ellipse cx="216" cy="346.4844" fill="#ADD8E6" rx="11" ry="11" style="stroke: none; stroke-width: 1.0;"/><path d="M215.7969,342.1563 L215.7969,345.7813 L216.7969,345.7813 Q218,345.7813 218.4844,345.375 Q218.9688,344.9688 218.9688,343.9688 Q218.9688,342.9688 218.4844,342.5625 Q218,342.1563 216.7969,342.1563 L215.7969,342.1563 Z M213.3438,340.0938 L216.7031,340.0938 Q219.2656,340.0938 220.3906,341.0156 Q221.5156,341.9219 221.5156,343.9688 Q221.5156,346.0156 220.3906,346.9375 Q219.2656,347.8438 216.7031,347.8438 L215.7969,347.8438 L215.7969,352.4844 L213.3438,352.4844 L213.3438,340.0938 Z "/><text fill="#000000" font-family="sans-serif" font-size="14" lengthAdjust="spacingAndGlyphs" textLength="65" x="233" y="348.4795">validators</text><ellipse cx="254.5" cy="373.4844" fill="#FEFECE" filter="url(#f1qml4wsfm7dix)" rx="12" ry="12" style="stroke: #A80036; stroke-width: 2.0;"/><polygon fill="#A80036" points="250.5,361.4844,256.5,356.4844,254.5,361.4844,256.5,366.4844,250.5,361.4844" style="stroke: #A80036; stroke-width: 1.0;"/><rect fill="#FEFECE" filter="url(#f1qml4wsfm7dix)" height="36" style="stroke: #A80036; stroke-width: 1.5;" width="119" x="318" y="46.9531"/><rect fill="#FEFECE" filter="url(#f1qml4wsfm7dix)" height="36" style="stroke: #A80036; stroke-width: 1.5;" width="119" x="314" y="50.9531"/><ellipse cx="332" cy="68.9531" fill="#ADD8E6" rx="11" ry="11" style="stroke: #A80036; stroke-width: 1.0;"/><path d="M331.7969,64.625 L331.7969,68.25 L332.7969,68.25 Q334,68.25 334.4844,67.8438 Q334.9688,67.4375 334.9688,66.4375 Q334.9688,65.4375 334.4844,65.0313 Q334,64.625 332.7969,64.625 L331.7969,64.625 Z M329.3438,62.5625 L332.7031,62.5625 Q335.2656,62.5625 336.3906,63.4844 Q337.5156,64.3906 337.5156,66.4375 Q337.5156,68.4844 336.3906,69.4063 Q335.2656,70.3125 332.7031,70.3125 L331.7969,70.3125 L331.7969,74.9531 L329.3438,74.9531 L329.3438,62.5625 Z "/><text fill="#000000" font-family="sans-serif" font-size="14" lengthAdjust="spacingAndGlyphs" textLength="77" x="349" y="70.9482">validators/*</text><rect fill="#FEFECE" filter="url(#f1qml4wsfm7dix)" height="36" style="stroke: #A80036; stroke-width: 1.5;" width="119" x="318" y="335.4844"/><rect fill="#FEFECE" filter="url(#f1qml4wsfm7dix)" height="36" style="stroke: #A80036; stroke-width: 1.5;" width="119" x="314" y="339.4844"/><ellipse cx="332" cy="357.4844" fill="#ADD8E6" rx="11" ry="11" style="stroke: #A80036; stroke-width: 1.0;"/><path d="M331.7969,353.1563 L331.7969,356.7813 L332.7969,356.7813 Q334,356.7813 334.4844,356.375 Q334.9688,355.9688 334.9688,354.9688 Q334.9688,353.9688 334.4844,353.5625 Q334,353.1563 332.7969,353.1563 L331.7969,353.1563 Z M329.3438,351.0938 L332.7031,351.0938 Q335.2656,351.0938 336.3906,352.0156 Q337.5156,352.9219 337.5156,354.9688 Q337.5156,357.0156 336.3906,357.9375 Q335.2656,358.8438 332.7031,358.8438 L331.7969,358.8438 L331.7969,363.4844 L329.3438,363.4844 L329.3438,351.0938 Z "/><text fill="#000000" font-family="sans-serif" font-size="14" lengthAdjust="spacingAndGlyphs" textLength="77" x="349" y="359.4795">validators/*</text><ellipse cx="462" cy="80.9531" fill="#ADD8E6" rx="11" ry="11" style="stroke: none; stroke-width: 1.0;"/><path d="M461.7969,76.625 L461.7969,80.25 L462.7969,80.25 Q464,80.25 464.4844,79.8438 Q464.9688,79.4375 464.9688,78.4375 Q464.9688,77.4375 464.4844,77.0313 Q464,76.625 462.7969,76.625 L461.7969,76.625 Z M459.3438,74.5625 L462.7031,74.5625 Q465.2656,74.5625 466.3906,75.4844 Q467.5156,76.3906 467.5156,78.4375 Q467.5156,80.4844 466.3906,81.4063 Q465.2656,82.3125 462.7031,82.3125 L461.7969,82.3125 L461.7969,86.9531 L459.3438,86.9531 L459.3438,74.5625 Z "/><text fill="#000000" font-family="sans-serif" font-size="14" lengthAdjust="spacingAndGlyphs" textLength="76" x="479" y="82.9482">generators</text><ellipse cx="506" cy="53.9531" fill="#FEFECE" filter="url(#f1qml4wsfm7dix)" rx="12" ry="12" style="stroke: #A80036; stroke-width: 2.0;"/><polygon fill="#A80036" points="502,41.9531,508,36.9531,506,41.9531,508,46.9531,502,41.9531" style="stroke: #A80036; stroke-width: 1.0;"/><ellipse cx="462" cy="346.4844" fill="#ADD8E6" rx="11" ry="11" style="stroke: none; stroke-width: 1.0;"/><path d="M461.7969,342.1563 L461.7969,345.7813 L462.7969,345.7813 Q464,345.7813 464.4844,345.375 Q464.9688,344.9688 464.9688,343.9688 Q464.9688,342.9688 464.4844,342.5625 Q464,342.1563 462.7969,342.1563 L461.7969,342.1563 Z M459.3438,340.0938 L462.7031,340.0938 Q465.2656,340.0938 466.3906,341.0156 Q467.5156,341.9219 467.5156,343.9688 Q467.5156,346.0156 466.3906,346.9375 Q465.2656,347.8438 462.7031,347.8438 L461.7969,347.8438 L461.7969,352.4844 L459.3438,352.4844 L459.3438,340.0938 Z "/><text fill="#000000" font-family="sans-serif" font-size="14" lengthAdjust="spacingAndGlyphs" textLength="76" x="479" y="348.4795">generators</text><ellipse cx="506" cy="373.4844" fill="#FEFECE" filter="url(#f1qml4wsfm7dix)" rx="12" ry="12" style="stroke: #A80036; stroke-width: 2.0;"/><polygon fill="#A80036" points="502,361.4844,508,356.4844,506,361.4844,508,366.4844,502,361.4844" style="stroke: #A80036; stroke-width: 1.0;"/><rect fill="#FEFECE" filter="url(#f1qml4wsfm7dix)" height="36" style="stroke: #A80036; stroke-width: 1.5;" width="130" x="575" y="46.9531"/><rect fill="#FEFECE" filter="url(#f1qml4wsfm7dix)" height="36" style="stroke: #A80036; stroke-width: 1.5;" width="130" x="571" y="50.9531"/><ellipse cx="589" cy="68.9531" fill="#ADD8E6" rx="11" ry="11" style="stroke: #A80036; stroke-width: 1.0;"/><path d="M588.7969,64.625 L588.7969,68.25 L589.7969,68.25 Q591,68.25 591.4844,67.8438 Q591.9688,67.4375 591.9688,66.4375 Q591.9688,65.4375 591.4844,65.0313 Q591,64.625 589.7969,64.625 L588.7969,64.625 Z M586.3438,62.5625 L589.7031,62.5625 Q592.2656,62.5625 593.3906,63.4844 Q594.5156,64.3906 594.5156,66.4375 Q594.5156,68.4844 593.3906,69.4063 Q592.2656,70.3125 589.7031,70.3125 L588.7969,70.3125 L588.7969,74.9531 L586.3438,74.9531 L586.3438,62.5625 Z "/><text fill="#000000" font-family="sans-serif" font-size="14" lengthAdjust="spacingAndGlyphs" textLength="88" x="606" y="70.9482">generators/*</text><rect fill="#FEFECE" filter="url(#f1qml4wsfm7dix)" height="36" style="stroke: #A80036; stroke-width: 1.5;" width="130" x="575" y="335.4844"/><rect fill="#FEFECE" filter="url(#f1qml4wsfm7dix)" height="36" style="stroke: #A80036; stroke-width: 1.5;" width="130" x="571" y="339.4844"/><ellipse cx="589" cy="357.4844" fill="#ADD8E6" rx="11" ry="11" style="stroke: #A80036; stroke-width: 1.0;"/><path d="M588.7969,353.1563 L588.7969,356.7813 L589.7969,356.7813 Q591,356.7813 591.4844,356.375 Q591.9688,355.9688 591.9688,354.9688 Q591.9688,353.9688 591.4844,353.5625 Q591,353.1563 589.7969,353.1563 L588.7969,353.1563 Z M586.3438,351.0938 L589.7031,351.0938 Q592.2656,351.0938 593.3906,352.0156 Q594.5156,352.9219 594.5156,354.9688 Q594.5156,357.0156 593.3906,357.9375 Q592.2656,358.8438 589.7031,358.8438 L588.7969,358.8438 L588.7969,363.4844 L586.3438,363.4844 L586.3438,351.0938 Z "/><text fill="#000000" font-family="sans-serif" font-size="14" lengthAdjust="spacingAndGlyphs" textLength="88" x="606" y="359.4795">generators/*</text><rect fill="#FFFFFF" filter="url(#f1qml4wsfm7dix)" height="14" style="stroke: #A80036; stroke-width: 1.0;" width="10" x="249.5" y="165.2188"/><rect fill="#FFFFFF" filter="url(#f1qml4wsfm7dix)" height="68.1328" style="stroke: #A80036; stroke-width: 1.0;" width="10" x="372.5" y="131.0859"/><rect fill="#FFFFFF" filter="url(#f1qml4wsfm7dix)" height="14" style="stroke: #A80036; stroke-width: 1.0;" width="10" x="501" y="277.4844"/><rect fill="#FFFFFF" filter="url(#f1qml4wsfm7dix)" height="68.1328" style="stroke: #A80036; stroke-width: 1.0;" width="10" x="635" y="243.3516"/><line style="stroke: #A80036; stroke-width: 1.0;" x1="377.5" x2="424.5" y1="118.0859" y2="118.0859"/><line style="stroke: #A80036; stroke-width: 1.0;" x1="424.5" x2="424.5" y1="118.0859" y2="131.0859"/><line style="stroke: #A80036; stroke-width: 1.0;" x1="383.5" x2="424.5" y1="131.0859" y2="131.0859"/><polygon fill="#A80036" points="393.5,127.0859,383.5,131.0859,393.5,135.0859,389.5,131.0859" style="stroke: #A80036; stroke-width: 1.0;"/><text fill="#000000" font-family="sans-serif" font-size="13" lengthAdjust="spacingAndGlyphs" textLength="19" x="389.5" y="113.02">init</text><polygon fill="#A80036" points="270.5,161.2188,260.5,165.2188,270.5,169.2188,266.5,165.2188" style="stroke: #A80036; stroke-width: 1.0;"/><line style="stroke: #A80036; stroke-width: 1.0;" x1="264.5" x2="371.5" y1="165.2188" y2="165.2188"/><text fill="#000000" font-family="sans-serif" font-size="13" lengthAdjust="spacingAndGlyphs" textLength="52" x="276.5" y="160.1528">Register</text><polygon fill="#A80036" points="360.5,175.2188,370.5,179.2188,360.5,183.2188,364.5,179.2188" style="stroke: #A80036; stroke-width: 1.0;"/><line style="stroke: #A80036; stroke-width: 1.0; stroke-dasharray: 2.0,2.0;" x1="254.5" x2="366.5" y1="179.2188" y2="179.2188"/><line style="stroke: #A80036; stroke-width: 1.0; stroke-dasharray: 2.0,2.0;" x1="382.5" x2="424.5" y1="198.2188" y2="198.2188"/><line style="stroke: #A80036; stroke-width: 1.0; stroke-dasharray: 2.0,2.0;" x1="424.5" x2="424.5" y1="198.2188" y2="211.2188"/><line style="stroke: #A80036; stroke-width: 1.0; stroke-dasharray: 2.0,2.0;" x1="377.5" x2="424.5" y1="211.2188" y2="211.2188"/><polygon fill="#A80036" points="387.5,207.2188,377.5,211.2188,387.5,215.2188,383.5,211.2188" style="stroke: #A80036; stroke-width: 1.0;"/><line style="stroke: #A80036; stroke-width: 1.0;" x1="640" x2="687" y1="230.3516" y2="230.3516"/><line style="stroke: #A80036; stroke-width: 1.0;" x1="687" x2="687" y1="230.3516" y2="243.3516"/><line style="stroke: #A80036; stroke-width: 1.0;" x1="646" x2="687" y1="243.3516" y2="243.3516"/><polygon fill="#A80036" points="656,239.3516,646,243.3516,656,247.3516,652,243.3516" style="stroke: #A80036; stroke-width: 1.0;"/><text fill="#000000" font-family="sans-serif" font-size="13" lengthAdjust="spacingAndGlyphs" textLength="19" x="652" y="225.2856">init</text><polygon fill="#A80036" points="522,273.4844,512,277.4844,522,281.4844,518,277.4844" style="stroke: #A80036; stroke-width: 1.0;"/><line style="stroke: #A80036; stroke-width: 1.0;" x1="516" x2="634" y1="277.4844" y2="277.4844"/><text fill="#000000" font-family="sans-serif" font-size="13" lengthAdjust="spacingAndGlyphs" textLength="52" x="528" y="272.4185">Register</text><polygon fill="#A80036" points="623,287.4844,633,291.4844,623,295.4844,627,291.4844" style="stroke: #A80036; stroke-width: 1.0;"/><line style="stroke: #A80036; stroke-width: 1.0; stroke-dasharray: 2.0,2.0;" x1="506" x2="629" y1="291.4844" y2="291.4844"/><line style="stroke: #A80036; stroke-width: 1.0; stroke-dasharray: 2.0,2.0;" x1="645" x2="687" y1="310.4844" y2="310.4844"/><line style="stroke: #A80036; stroke-width: 1.0; stroke-dasharray: 2.0,2.0;" x1="687" x2="687" y1="310.4844" y2="323.4844"/><line style="stroke: #A80036; stroke-width: 1.0; stroke-dasharray: 2.0,2.0;" x1="640" x2="687" y1="323.4844" y2="323.4844"/><polygon fill="#A80036" points="650,319.4844,640,323.4844,650,327.4844,646,323.4844" style="stroke: #A80036; stroke-width: 1.0;"/><!--MD5=[618f2273c084ad93ee7ae79df550ba3f]
@startuml
autoactivate on

boundary "main" as Main << (P,LightBlue) >>
control "go-spector" as GoSpector << (P,LightBlue) >>
control "validators" as Validators << (P,LightBlue) >>
collections "validators/*" as ValidatorsCollection << (P,LightBlue) >>
control "generators" as Generators << (P,LightBlue) >>
collections "generators/*" as GeneratorsCollection << (P,LightBlue) >>

ValidatorsCollection -> ValidatorsCollection : init
ValidatorsCollection -> Validators : Register
return
return

GeneratorsCollection -> GeneratorsCollection : init
GeneratorsCollection -> Generators : Register
return
return

title Go Spector CLI init v0
@enduml

PlantUML version 1.2020.02(Sun Mar 01 10:22:07 GMT 2020)
(GPL source distribution)
Java Runtime: OpenJDK Runtime Environment
JVM: OpenJDK 64-Bit Server VM
Java Version: 11.0.9+11-Ubuntu-0ubuntu1
Operating System: Linux
Default Encoding: ANSI_X3.4-1968
Language: en
Country: US
--></g></svg>