<?xml version="1.0" encoding="UTF-8" standalone="no"?><svg xmlns="http://www.w3.org/2000/svg" xmlns:xlink="http://www.w3.org/1999/xlink" contentScriptType="application/ecmascript" contentStyleType="text/css" height="402px" preserveAspectRatio="none" style="width:724px;height:402px;" version="1.1" viewBox="0 0 724 402" width="724px" zoomAndPan="magnify"><defs><filter height="300%" id="f1qml4wsfm7dix" width="300%" x="-1" y="-1"><feGaussianBlur result="blurOut" stdDeviation="2.0"/><feColorMatrix in="blurOut" result="blurOut2" type="matrix" values="0 0 0 0 0 0 0 0 0 0 0 0 0 0 0 0 0 0 .4 0"/><feOffset dx="4.0" dy="4.0" in="blurOut2" result="blurOut3"/><feBlend in="SourceGraphic" in2="blurOut3" mode="normal"/></filter></defs><g><text fill="#000000" font-family="sans-serif" font-size="18" lengthAdjust="spacingAndGlyphs" textLength="188" x="265.5" y="29.4023">Go Spector CLI init v0</text><rect fill="#FFFFFF" filter="url(#f1qml4wsfm7dix)" height="14" style="stroke:#A80036;stroke-width:1.0;" width="10" x="249.5" y="167.8203"/><rect fill="#FFFFFF" filter="url(#f1qml4wsfm7dix)" height="68.3105" style="stroke:#A80036;stroke-width:1.0;" width="10" x="375.5" y="133.5098"/><rect fill="#FFFFFF" filter="url(#f1qml4wsfm7dix)" height="14" style="stroke:#A80036;stroke-width:1.0;" width="10" x="505.5" y="280.4414"/><rect fill="#FFFFFF" filter="url(#f1qml4wsfm7dix)" height="68.3105" style="stroke:#A80036;stroke-width:1.0;" width="10" x="639.5" y="246.1309"/><line style="stroke:#A80036;stroke-width:1.0;stroke-dasharray:5.0,5.0;" x1="39" x2="39" y1="94.1992" y2="339.4414"/><line style="stroke:#A80036;stroke-width:1.0;stroke-dasharray:5.0,5.0;" x1="138" x2="138" y1="94.1992" y2="339.4414"/><line style="stroke:#A80036;stroke-width:1.0;stroke-dasharray:5.0,5.0;" x1="254" x2="254" y1="94.1992" y2="339.4414"/><line style="stroke:#A80036;stroke-width:1.0;stroke-dasharray:5.0,5.0;" x1="380" x2="380" y1="94.1992" y2="339.4414"/><line style="stroke:#A80036;stroke-width:1.0;stroke-dasharray:5.0,5.0;" x1="510" x2="510" y1="94.1992" y2="339.4414"/><line style="stroke:#A80036;stroke-width:1.0;stroke-dasharray:5.0,5.0;" x1="644" x2="644" y1="94.1992" y2="339.4414"/><ellipse cx="16" cy="83.1992" fill="#ADD8E6" rx="11" ry="11" style="stroke:none;stroke-width:1.0;"/><path d="M14.7935,79.3647 L14.7935,83.0005 L15.7979,83.0005 Q17.0015,83.0005 17.4871,82.5938 Q17.9727,82.187 17.9727,81.1826 Q17.9727,80.1782 17.4871,79.7715 Q17.0015,79.3647 15.7979,79.3647 Z M12.3447,77.3062 L15.7065,77.3062 Q18.2715,77.3062 19.3962,78.2192 Q20.521,79.1323 20.521,81.1826 Q20.521,83.2329 19.3962,84.146 Q18.2715,85.0591 15.7065,85.0591 L14.7935,85.0591 L14.7935,89.6992 L12.3447,89.6992 Z " fill="#000000"/><text fill="#000000" font-family="sans-serif" font-size="14" lengthAdjust="spacingAndGlyphs" textLength="34" x="33" y="85.7344">main</text><path d="M18.5,44.1992 L18.5,68.1992 M18.5,56.1992 L35.5,56.1992 " fill="none" filter="url(#f1qml4wsfm7dix)" style="stroke:#A80036;stroke-width:2.0;"/><ellipse cx="47.5" cy="56.1992" fill="#FEFECE" filter="url(#f1qml4wsfm7dix)" rx="12" ry="12" style="stroke:#A80036;stroke-width:2.0;"/><ellipse cx="16" cy="349.4414" fill="#ADD8E6" rx="11" ry="11" style="stroke:none;stroke-width:1.0;"/><path d="M14.7935,345.6069 L14.7935,349.2427 L15.7979,349.2427 Q17.0015,349.2427 17.4871,348.8359 Q17.9727,348.4292 17.9727,347.4248 Q17.9727,346.4204 17.4871,346.0137 Q17.0015,345.6069 15.7979,345.6069 Z M12.3447,343.5483 L15.7065,343.5483 Q18.2715,343.5483 19.3962,344.4614 Q20.521,345.3745 20.521,347.4248 Q20.521,349.4751 19.3962,350.3882 Q18.2715,351.3013 15.7065,351.3013 L14.7935,351.3013 L14.7935,355.9414 L12.3447,355.9414 Z " fill="#000000"/><text fill="#000000" font-family="sans-serif" font-size="14" lengthAdjust="spacingAndGlyphs" textLength="34" x="33" y="351.9766">main</text><path d="M18.5,364.4414 L18.5,388.4414 M18.5,376.4414 L35.5,376.4414 " fill="none" filter="url(#f1qml4wsfm7dix)" style="stroke:#A80036;stroke-width:2.0;"/><ellipse cx="47.5" cy="376.4414" fill="#FEFECE" filter="url(#f1qml4wsfm7dix)" rx="12" ry="12" style="stroke:#A80036;stroke-width:2.0;"/><ellipse cx="94" cy="83.1992" fill="#ADD8E6" rx="11" ry="11" style="stroke:none;stroke-width:1.0;"/><path d="M92.7935,79.3647 L92.7935,83.0005 L93.7979,83.0005 Q95.0015,83.0005 95.4871,82.5938 Q95.9727,82.187 95.9727,81.1826 Q95.9727,80.1782 95.4871,79.7715 Q95.0015,79.3647 93.7979,79.3647 Z M90.3447,77.3062 L93.7065,77.3062 Q96.2715,77.3062 97.3962,78.2192 Q98.521,79.1323 98.521,81.1826 Q98.521,83.2329 97.3962,84.146 Q96.2715,85.0591 93.7065,85.0591 L92.7935,85.0591 L92.7935,89.6992 L90.3447,89.6992 Z " fill="#000000"/><text fill="#000000" font-family="sans-serif" font-size="14" lengthAdjust="spacingAndGlyphs" textLength="77" x="111" y="85.7344">go-spector</text><ellipse cx="138.5" cy="56.1992" fill="#FEFECE" filter="url(#f1qml4wsfm7dix)" rx="12" ry="12" style="stroke:#A80036;stroke-width:2.0;"/><polygon fill="#A80036" points="134.5,44.1992,140.5,39.1992,138.5,44.1992,140.5,49.1992,134.5,44.1992" style="stroke:#A80036;stroke-width:1.0;"/><ellipse cx="94" cy="349.4414" fill="#ADD8E6" rx="11" ry="11" style="stroke:none;stroke-width:1.0;"/><path d="M92.7935,345.6069 L92.7935,349.2427 L93.7979,349.2427 Q95.0015,349.2427 95.4871,348.8359 Q95.9727,348.4292 95.9727,347.4248 Q95.9727,346.4204 95.4871,346.0137 Q95.0015,345.6069 93.7979,345.6069 Z M90.3447,343.5483 L93.7065,343.5483 Q96.2715,343.5483 97.3962,344.4614 Q98.521,345.3745 98.521,347.4248 Q98.521,349.4751 97.3962,350.3882 Q96.2715,351.3013 93.7065,351.3013 L92.7935,351.3013 L92.7935,355.9414 L90.3447,355.9414 Z " fill="#000000"/><text fill="#000000" font-family="sans-serif" font-size="14" lengthAdjust="spacingAndGlyphs" textLength="77" x="111" y="351.9766">go-spector</text><ellipse cx="138.5" cy="376.4414" fill="#FEFECE" filter="url(#f1qml4wsfm7dix)" rx="12" ry="12" style="stroke:#A80036;stroke-width:2.0;"/><polygon fill="#A80036" points="134.5,364.4414,140.5,359.4414,138.5,364.4414,140.5,369.4414,134.5,364.4414" style="stroke:#A80036;stroke-width:1.0;"/><ellipse cx="215" cy="83.1992" fill="#ADD8E6" rx="11" ry="11" style="stroke:none;stroke-width:1.0;"/><path d="M213.7935,79.3647 L213.7935,83.0005 L214.7979,83.0005 Q216.0015,83.0005 216.4871,82.5938 Q216.9727,82.187 216.9727,81.1826 Q216.9727,80.1782 216.4871,79.7715 Q216.0015,79.3647 214.7979,79.3647 Z M211.3447,77.3062 L214.7065,77.3062 Q217.2715,77.3062 218.3962,78.2192 Q219.521,79.1323 219.521,81.1826 Q219.521,83.2329 218.3962,84.146 Q217.2715,85.0591 214.7065,85.0591 L213.7935,85.0591 L213.7935,89.6992 L211.3447,89.6992 Z " fill="#000000"/><text fill="#000000" font-family="sans-serif" font-size="14" lengthAdjust="spacingAndGlyphs" textLength="67" x="232" y="85.7344">validators</text><ellipse cx="254.5" cy="56.1992" fill="#FEFECE" filter="url(#f1qml4wsfm7dix)" rx="12" ry="12" style="stroke:#A80036;stroke-width:2.0;"/><polygon fill="#A80036" points="250.5,44.1992,256.5,39.1992,254.5,44.1992,256.5,49.1992,250.5,44.1992" style="stroke:#A80036;stroke-width:1.0;"/><ellipse cx="215" cy="349.4414" fill="#ADD8E6" rx="11" ry="11" style="stroke:none;stroke-width:1.0;"/><path d="M213.7935,345.6069 L213.7935,349.2427 L214.7979,349.2427 Q216.0015,349.2427 216.4871,348.8359 Q216.9727,348.4292 216.9727,347.4248 Q216.9727,346.4204 216.4871,346.0137 Q216.0015,345.6069 214.7979,345.6069 Z M211.3447,343.5483 L214.7065,343.5483 Q217.2715,343.5483 218.3962,344.4614 Q219.521,345.3745 219.521,347.4248 Q219.521,349.4751 218.3962,350.3882 Q217.2715,351.3013 214.7065,351.3013 L213.7935,351.3013 L213.7935,355.9414 L211.3447,355.9414 Z " fill="#000000"/><text fill="#000000" font-family="sans-serif" font-size="14" lengthAdjust="spacingAndGlyphs" textLength="67" x="232" y="351.9766">validators</text><ellipse cx="254.5" cy="376.4414" fill="#FEFECE" filter="url(#f1qml4wsfm7dix)" rx="12" ry="12" style="stroke:#A80036;stroke-width:2.0;"/><polygon fill="#A80036" points="250.5,364.4414,256.5,359.4414,254.5,364.4414,256.5,369.4414,250.5,364.4414" style="stroke:#A80036;stroke-width:1.0;"/><rect fill="#FEFECE" filter="url(#f1qml4wsfm7dix)" height="36" style="stroke:#A80036;stroke-width:1.5;" width="123" x="319" y="49.1992"/><rect fill="#FEFECE" filter="url(#f1qml4wsfm7dix)" height="36" style="stroke:#A80036;stroke-width:1.5;" width="123" x="315" y="53.1992"/><ellipse cx="333" cy="71.1992" fill="#ADD8E6" rx="11" ry="11" style="stroke:#A80036;stroke-width:1.0;"/><path d="M331.7935,67.3647 L331.7935,71.0005 L332.7979,71.0005 Q334.0015,71.0005 334.4871,70.5938 Q334.9727,70.187 334.9727,69.1826 Q334.9727,68.1782 334.4871,67.7715 Q334.0015,67.3647 332.7979,67.3647 Z M329.3447,65.3062 L332.7065,65.3062 Q335.2715,65.3062 336.3962,66.2192 Q337.521,67.1323 337.521,69.1826 Q337.521,71.2329 336.3962,72.146 Q335.2715,73.0591 332.7065,73.0591 L331.7935,73.0591 L331.7935,77.6992 L329.3447,77.6992 Z " fill="#000000"/><text fill="#000000" font-family="sans-serif" font-size="14" lengthAdjust="spacingAndGlyphs" textLength="81" x="350" y="73.7344">validators/*</text><rect fill="#FEFECE" filter="url(#f1qml4wsfm7dix)" height="36" style="stroke:#A80036;stroke-width:1.5;" width="123" x="319" y="338.4414"/><rect fill="#FEFECE" filter="url(#f1qml4wsfm7dix)" height="36" style="stroke:#A80036;stroke-width:1.5;" width="123" x="315" y="342.4414"/><ellipse cx="333" cy="360.4414" fill="#ADD8E6" rx="11" ry="11" style="stroke:#A80036;stroke-width:1.0;"/><path d="M331.7935,356.6069 L331.7935,360.2427 L332.7979,360.2427 Q334.0015,360.2427 334.4871,359.8359 Q334.9727,359.4292 334.9727,358.4248 Q334.9727,357.4204 334.4871,357.0137 Q334.0015,356.6069 332.7979,356.6069 Z M329.3447,354.5483 L332.7065,354.5483 Q335.2715,354.5483 336.3962,355.4614 Q337.521,356.3745 337.521,358.4248 Q337.521,360.4751 336.3962,361.3882 Q335.2715,362.3013 332.7065,362.3013 L331.7935,362.3013 L331.7935,366.9414 L329.3447,366.9414 Z " fill="#000000"/><text fill="#000000" font-family="sans-serif" font-size="14" lengthAdjust="spacingAndGlyphs" textLength="81" x="350" y="362.9766">validators/*</text><ellipse cx="467" cy="83.1992" fill="#ADD8E6" rx="11" ry="11" style="stroke:none;stroke-width:1.0;"/><path d="M465.7935,79.3647 L465.7935,83.0005 L466.7979,83.0005 Q468.0015,83.0005 468.4871,82.5938 Q468.9727,82.187 468.9727,81.1826 Q468.9727,80.1782 468.4871,79.7715 Q468.0015,79.3647 466.7979,79.3647 Z M463.3447,77.3062 L466.7065,77.3062 Q469.2715,77.3062 470.3962,78.2192 Q471.521,79.1323 471.521,81.1826 Q471.521,83.2329 470.3962,84.146 Q469.2715,85.0591 466.7065,85.0591 L465.7935,85.0591 L465.7935,89.6992 L463.3447,89.6992 Z " fill="#000000"/><text fill="#000000" font-family="sans-serif" font-size="14" lengthAdjust="spacingAndGlyphs" textLength="75" x="484" y="85.7344">generators</text><ellipse cx="510.5" cy="56.1992" fill="#FEFECE" filter="url(#f1qml4wsfm7dix)" rx="12" ry="12" style="stroke:#A80036;stroke-width:2.0;"/><polygon fill="#A80036" points="506.5,44.1992,512.5,39.1992,510.5,44.1992,512.5,49.1992,506.5,44.1992" style="stroke:#A80036;stroke-width:1.0;"/><ellipse cx="467" cy="349.4414" fill="#ADD8E6" rx="11" ry="11" style="stroke:none;stroke-width:1.0;"/><path d="M465.7935,345.6069 L465.7935,349.2427 L466.7979,349.2427 Q468.0015,349.2427 468.4871,348.8359 Q468.9727,348.4292 468.9727,347.4248 Q468.9727,346.4204 468.4871,346.0137 Q468.0015,345.6069 466.7979,345.6069 Z M463.3447,343.5483 L466.7065,343.5483 Q469.2715,343.5483 470.3962,344.4614 Q471.521,345.3745 471.521,347.4248 Q471.521,349.4751 470.3962,350.3882 Q469.2715,351.3013 466.7065,351.3013 L465.7935,351.3013 L465.7935,355.9414 L463.3447,355.9414 Z " fill="#000000"/><text fill="#000000" font-family="sans-serif" font-size="14" lengthAdjust="spacingAndGlyphs" textLength="75" x="484" y="351.9766">generators</text><ellipse cx="510.5" cy="376.4414" fill="#FEFECE" filter="url(#f1qml4wsfm7dix)" rx="12" ry="12" style="stroke:#A80036;stroke-width:2.0;"/><polygon fill="#A80036" points="506.5,364.4414,512.5,359.4414,510.5,364.4414,512.5,369.4414,506.5,364.4414" style="stroke:#A80036;stroke-width:1.0;"/><rect fill="#FEFECE" filter="url(#f1qml4wsfm7dix)" height="36" style="stroke:#A80036;stroke-width:1.5;" width="131" x="579" y="49.1992"/><rect fill="#FEFECE" filter="url(#f1qml4wsfm7dix)" height="36" style="stroke:#A80036;stroke-width:1.5;" width="131" x="575" y="53.1992"/><ellipse cx="593" cy="71.1992" fill="#ADD8E6" rx="11" ry="11" style="stroke:#A80036;stroke-width:1.0;"/><path d="M591.7935,67.3647 L591.7935,71.0005 L592.7979,71.0005 Q594.0015,71.0005 594.4871,70.5938 Q594.9727,70.187 594.9727,69.1826 Q594.9727,68.1782 594.4871,67.7715 Q594.0015,67.3647 592.7979,67.3647 Z M589.3447,65.3062 L592.7065,65.3062 Q595.2715,65.3062 596.3962,66.2192 Q597.521,67.1323 597.521,69.1826 Q597.521,71.2329 596.3962,72.146 Q595.2715,73.0591 592.7065,73.0591 L591.7935,73.0591 L591.7935,77.6992 L589.3447,77.6992 Z " fill="#000000"/><text fill="#000000" font-family="sans-serif" font-size="14" lengthAdjust="spacingAndGlyphs" textLength="89" x="610" y="73.7344">generators/*</text><rect fill="#FEFECE" filter="url(#f1qml4wsfm7dix)" height="36" style="stroke:#A80036;stroke-width:1.5;" width="131" x="579" y="338.4414"/><rect fill="#FEFECE" filter="url(#f1qml4wsfm7dix)" height="36" style="stroke:#A80036;stroke-width:1.5;" width="131" x="575" y="342.4414"/><ellipse cx="593" cy="360.4414" fill="#ADD8E6" rx="11" ry="11" style="stroke:#A80036;stroke-width:1.0;"/><path d="M591.7935,356.6069 L591.7935,360.2427 L592.7979,360.2427 Q594.0015,360.2427 594.4871,359.8359 Q594.9727,359.4292 594.9727,358.4248 Q594.9727,357.4204 594.4871,357.0137 Q594.0015,356.6069 592.7979,356.6069 Z M589.3447,354.5483 L592.7065,354.5483 Q595.2715,354.5483 596.3962,355.4614 Q597.521,356.3745 597.521,358.4248 Q597.521,360.4751 596.3962,361.3882 Q595.2715,362.3013 592.7065,362.3013 L591.7935,362.3013 L591.7935,366.9414 L589.3447,366.9414 Z " fill="#000000"/><text fill="#000000" font-family="sans-serif" font-size="14" lengthAdjust="spacingAndGlyphs" textLength="89" x="610" y="362.9766">generators/*</text><rect fill="#FFFFFF" filter="url(#f1qml4wsfm7dix)" height="14" style="stroke:#A80036;stroke-width:1.0;" width="10" x="249.5" y="167.8203"/><rect fill="#FFFFFF" filter="url(#f1qml4wsfm7dix)" height="68.3105" style="stroke:#A80036;stroke-width:1.0;" width="10" x="375.5" y="133.5098"/><rect fill="#FFFFFF" filter="url(#f1qml4wsfm7dix)" height="14" style="stroke:#A80036;stroke-width:1.0;" width="10" x="505.5" y="280.4414"/><rect fill="#FFFFFF" filter="url(#f1qml4wsfm7dix)" height="68.3105" style="stroke:#A80036;stroke-width:1.0;" width="10" x="639.5" y="246.1309"/><line style="stroke:#A80036;stroke-width:1.0;" x1="380.5" x2="427.5" y1="120.5098" y2="120.5098"/><line style="stroke:#A80036;stroke-width:1.0;" x1="427.5" x2="427.5" y1="120.5098" y2="133.5098"/><line style="stroke:#A80036;stroke-width:1.0;" x1="386.5" x2="427.5" y1="133.5098" y2="133.5098"/><polygon fill="#A80036" points="396.5,129.5098,386.5,133.5098,396.5,137.5098,392.5,133.5098" style="stroke:#A80036;stroke-width:1.0;"/><text fill="#000000" font-family="sans-serif" font-size="13" lengthAdjust="spacingAndGlyphs" textLength="21" x="392.5" y="115.7676">init</text><polygon fill="#A80036" points="270.5,163.8203,260.5,167.8203,270.5,171.8203,266.5,167.8203" style="stroke:#A80036;stroke-width:1.0;"/><line style="stroke:#A80036;stroke-width:1.0;" x1="264.5" x2="374.5" y1="167.8203" y2="167.8203"/><text fill="#000000" font-family="sans-serif" font-size="13" lengthAdjust="spacingAndGlyphs" textLength="51" x="276.5" y="163.0781">Register</text><polygon fill="#A80036" points="363.5,177.8203,373.5,181.8203,363.5,185.8203,367.5,181.8203" style="stroke:#A80036;stroke-width:1.0;"/><line style="stroke:#A80036;stroke-width:1.0;stroke-dasharray:2.0,2.0;" x1="254.5" x2="369.5" y1="181.8203" y2="181.8203"/><line style="stroke:#A80036;stroke-width:1.0;stroke-dasharray:2.0,2.0;" x1="385.5" x2="427.5" y1="200.8203" y2="200.8203"/><line style="stroke:#A80036;stroke-width:1.0;stroke-dasharray:2.0,2.0;" x1="427.5" x2="427.5" y1="200.8203" y2="213.8203"/><line style="stroke:#A80036;stroke-width:1.0;stroke-dasharray:2.0,2.0;" x1="380.5" x2="427.5" y1="213.8203" y2="213.8203"/><polygon fill="#A80036" points="390.5,209.8203,380.5,213.8203,390.5,217.8203,386.5,213.8203" style="stroke:#A80036;stroke-width:1.0;"/><line style="stroke:#A80036;stroke-width:1.0;" x1="644.5" x2="691.5" y1="233.1309" y2="233.1309"/><line style="stroke:#A80036;stroke-width:1.0;" x1="691.5" x2="691.5" y1="233.1309" y2="246.1309"/><line style="stroke:#A80036;stroke-width:1.0;" x1="650.5" x2="691.5" y1="246.1309" y2="246.1309"/><polygon fill="#A80036" points="660.5,242.1309,650.5,246.1309,660.5,250.1309,656.5,246.1309" style="stroke:#A80036;stroke-width:1.0;"/><text fill="#000000" font-family="sans-serif" font-size="13" lengthAdjust="spacingAndGlyphs" textLength="21" x="656.5" y="228.3887">init</text><polygon fill="#A80036" points="526.5,276.4414,516.5,280.4414,526.5,284.4414,522.5,280.4414" style="stroke:#A80036;stroke-width:1.0;"/><line style="stroke:#A80036;stroke-width:1.0;" x1="520.5" x2="638.5" y1="280.4414" y2="280.4414"/><text fill="#000000" font-family="sans-serif" font-size="13" lengthAdjust="spacingAndGlyphs" textLength="51" x="532.5" y="275.6992">Register</text><polygon fill="#A80036" points="627.5,290.4414,637.5,294.4414,627.5,298.4414,631.5,294.4414" style="stroke:#A80036;stroke-width:1.0;"/><line style="stroke:#A80036;stroke-width:1.0;stroke-dasharray:2.0,2.0;" x1="510.5" x2="633.5" y1="294.4414" y2="294.4414"/><line style="stroke:#A80036;stroke-width:1.0;stroke-dasharray:2.0,2.0;" x1="649.5" x2="691.5" y1="313.4414" y2="313.4414"/><line style="stroke:#A80036;stroke-width:1.0;stroke-dasharray:2.0,2.0;" x1="691.5" x2="691.5" y1="313.4414" y2="326.4414"/><line style="stroke:#A80036;stroke-width:1.0;stroke-dasharray:2.0,2.0;" x1="644.5" x2="691.5" y1="326.4414" y2="326.4414"/><polygon fill="#A80036" points="654.5,322.4414,644.5,326.4414,654.5,330.4414,650.5,326.4414" style="stroke:#A80036;stroke-width:1.0;"/><!--MD5=[3c1153d95801a11b3e09b1cd60768980]
@startuml
autoactivate on

!include components-v0.iuml

ValidatorsCollection -> ValidatorsCollection : init
ValidatorsCollection -> Validators : Register
return
return

GeneratorsCollection -> GeneratorsCollection : init
GeneratorsCollection -> Generators : Register
return
return

title Go Spector CLI init v0
@enduml

@startuml
autoactivate on

boundary "main" as Main << (P,LightBlue) >>
control "go-spector" as GoSpector << (P,LightBlue) >>
control "validators" as Validators << (P,LightBlue) >>
collections "validators/*" as ValidatorsCollection << (P,LightBlue) >>
control "generators" as Generators << (P,LightBlue) >>
collections "generators/*" as GeneratorsCollection << (P,LightBlue) >>

ValidatorsCollection -> ValidatorsCollection : init
ValidatorsCollection -> Validators : Register
return
return

GeneratorsCollection -> GeneratorsCollection : init
GeneratorsCollection -> Generators : Register
return
return

title Go Spector CLI init v0
@enduml

PlantUML version 1.2020.26(Mon Dec 21 18:45:07 CET 2020)
(GPL source distribution)
Java Runtime: Java(TM) SE Runtime Environment
JVM: Java HotSpot(TM) 64-Bit Server VM
Default Encoding: UTF-8
Language: en
Country: NL
--></g></svg>