<?xml version="1.0" encoding="UTF-8" standalone="no"?><svg xmlns="http://www.w3.org/2000/svg" xmlns:xlink="http://www.w3.org/1999/xlink" contentScriptType="application/ecmascript" contentStyleType="text/css" height="999px" preserveAspectRatio="none" style="width:900px;height:999px;" version="1.1" viewBox="0 0 900 999" width="900px" zoomAndPan="magnify"><defs><filter height="300%" id="f1apd4yn4ggpo0" width="300%" x="-1" y="-1"><feGaussianBlur result="blurOut" stdDeviation="2.0"/><feColorMatrix in="blurOut" result="blurOut2" type="matrix" values="0 0 0 0 0 0 0 0 0 0 0 0 0 0 0 0 0 0 .4 0"/><feOffset dx="4.0" dy="4.0" in="blurOut2" result="blurOut3"/><feBlend in="SourceGraphic" in2="blurOut3" mode="normal"/></filter></defs><g><text fill="#000000" font-family="sans-serif" font-size="18" lengthAdjust="spacingAndGlyphs" textLength="162" x="364.75" y="26.708">Go Spector CLI v0</text><rect fill="#FFFFFF" filter="url(#f1apd4yn4ggpo0)" height="663.2578" style="stroke: #A80036; stroke-width: 1.0;" width="10" x="53" y="256.75"/><rect fill="#FFFFFF" filter="url(#f1apd4yn4ggpo0)" height="25" style="stroke: #A80036; stroke-width: 1.0;" width="10" x="58" y="397.4141"/><rect fill="#FFFFFF" filter="url(#f1apd4yn4ggpo0)" height="25" style="stroke: #A80036; stroke-width: 1.0;" width="10" x="58" y="490.6797"/><rect fill="#FFFFFF" filter="url(#f1apd4yn4ggpo0)" height="29.1328" style="stroke: #A80036; stroke-width: 1.0;" width="10" x="232" y="331.1484"/><rect fill="#FFFFFF" filter="url(#f1apd4yn4ggpo0)" height="286.7969" style="stroke: #A80036; stroke-width: 1.0;" width="10" x="232" y="551.8125"/><rect fill="#FFFFFF" filter="url(#f1apd4yn4ggpo0)" height="25" style="stroke: #A80036; stroke-width: 1.0;" width="10" x="237" y="588.9453"/><rect fill="#FFFFFF" filter="url(#f1apd4yn4ggpo0)" height="88.2656" style="stroke: #A80036; stroke-width: 1.0;" width="10" x="409" y="650.0781"/><rect fill="#FFFFFF" filter="url(#f1apd4yn4ggpo0)" height="14" style="stroke: #A80036; stroke-width: 1.0;" width="10" x="532" y="703.3438"/><rect fill="#FFFFFF" filter="url(#f1apd4yn4ggpo0)" height="57.1328" style="stroke: #A80036; stroke-width: 1.0;" width="10" x="660.5" y="767.4766"/><rect fill="#FFFFFF" filter="url(#f1apd4yn4ggpo0)" height="14" style="stroke: #A80036; stroke-width: 1.0;" width="10" x="794.5" y="796.6094"/><rect fill="#FFFFFF" filter="url(#f1apd4yn4ggpo0)" height="447.4609" style="stroke: #000000; stroke-width: 2.0;" width="864" x="14.5" y="444.4141"/><rect fill="#FFFFFF" filter="url(#f1apd4yn4ggpo0)" height="60.2656" style="stroke: #000000; stroke-width: 2.0;" width="256" x="354.5" y="665.0781"/><line style="stroke: #A80036; stroke-width: 1.0; stroke-dasharray: 5.0,5.0;" x1="57.5" x2="57.5" y1="91.9531" y2="938.0078"/><line style="stroke: #A80036; stroke-width: 1.0; stroke-dasharray: 5.0,5.0;" x1="237" x2="237" y1="91.9531" y2="938.0078"/><line style="stroke: #A80036; stroke-width: 1.0; stroke-dasharray: 5.0,5.0;" x1="413.5" x2="413.5" y1="91.9531" y2="938.0078"/><line style="stroke: #A80036; stroke-width: 1.0; stroke-dasharray: 5.0,5.0;" x1="536.5" x2="536.5" y1="91.9531" y2="938.0078"/><line style="stroke: #A80036; stroke-width: 1.0; stroke-dasharray: 5.0,5.0;" x1="665.5" x2="665.5" y1="91.9531" y2="938.0078"/><line style="stroke: #A80036; stroke-width: 1.0; stroke-dasharray: 5.0,5.0;" x1="799.5" x2="799.5" y1="91.9531" y2="938.0078"/><ellipse cx="35.5" cy="80.9531" fill="#ADD8E6" rx="11" ry="11" style="stroke: none; stroke-width: 1.0;"/><path d="M35.2969,76.625 L35.2969,80.25 L36.2969,80.25 Q37.5,80.25 37.9844,79.8438 Q38.4688,79.4375 38.4688,78.4375 Q38.4688,77.4375 37.9844,77.0313 Q37.5,76.625 36.2969,76.625 L35.2969,76.625 Z M32.8438,74.5625 L36.2031,74.5625 Q38.7656,74.5625 39.8906,75.4844 Q41.0156,76.3906 41.0156,78.4375 Q41.0156,80.4844 39.8906,81.4063 Q38.7656,82.3125 36.2031,82.3125 L35.2969,82.3125 L35.2969,86.9531 L32.8438,86.9531 L32.8438,74.5625 Z "/><text fill="#000000" font-family="sans-serif" font-size="14" lengthAdjust="spacingAndGlyphs" textLength="33" x="52.5" y="82.9482">main</text><path d="M37.5,41.9531 L37.5,65.9531 M37.5,53.9531 L54.5,53.9531 " fill="none" filter="url(#f1apd4yn4ggpo0)" style="stroke: #A80036; stroke-width: 2.0;"/><ellipse cx="66.5" cy="53.9531" fill="#FEFECE" filter="url(#f1apd4yn4ggpo0)" rx="12" ry="12" style="stroke: #A80036; stroke-width: 2.0;"/><ellipse cx="35.5" cy="948.0078" fill="#ADD8E6" rx="11" ry="11" style="stroke: none; stroke-width: 1.0;"/><path d="M35.2969,943.6797 L35.2969,947.3047 L36.2969,947.3047 Q37.5,947.3047 37.9844,946.8984 Q38.4688,946.4922 38.4688,945.4922 Q38.4688,944.4922 37.9844,944.0859 Q37.5,943.6797 36.2969,943.6797 L35.2969,943.6797 Z M32.8438,941.6172 L36.2031,941.6172 Q38.7656,941.6172 39.8906,942.5391 Q41.0156,943.4453 41.0156,945.4922 Q41.0156,947.5391 39.8906,948.4609 Q38.7656,949.3672 36.2031,949.3672 L35.2969,949.3672 L35.2969,954.0078 L32.8438,954.0078 L32.8438,941.6172 Z "/><text fill="#000000" font-family="sans-serif" font-size="14" lengthAdjust="spacingAndGlyphs" textLength="33" x="52.5" y="950.0029">main</text><path d="M37.5,963.0078 L37.5,987.0078 M37.5,975.0078 L54.5,975.0078 " fill="none" filter="url(#f1apd4yn4ggpo0)" style="stroke: #A80036; stroke-width: 2.0;"/><ellipse cx="66.5" cy="975.0078" fill="#FEFECE" filter="url(#f1apd4yn4ggpo0)" rx="12" ry="12" style="stroke: #A80036; stroke-width: 2.0;"/><ellipse cx="193" cy="80.9531" fill="#ADD8E6" rx="11" ry="11" style="stroke: none; stroke-width: 1.0;"/><path d="M192.7969,76.625 L192.7969,80.25 L193.7969,80.25 Q195,80.25 195.4844,79.8438 Q195.9688,79.4375 195.9688,78.4375 Q195.9688,77.4375 195.4844,77.0313 Q195,76.625 193.7969,76.625 L192.7969,76.625 Z M190.3438,74.5625 L193.7031,74.5625 Q196.2656,74.5625 197.3906,75.4844 Q198.5156,76.3906 198.5156,78.4375 Q198.5156,80.4844 197.3906,81.4063 Q196.2656,82.3125 193.7031,82.3125 L192.7969,82.3125 L192.7969,86.9531 L190.3438,86.9531 L190.3438,74.5625 Z "/><text fill="#000000" font-family="sans-serif" font-size="14" lengthAdjust="spacingAndGlyphs" textLength="76" x="210" y="82.9482">go-spector</text><ellipse cx="237" cy="53.9531" fill="#FEFECE" filter="url(#f1apd4yn4ggpo0)" rx="12" ry="12" style="stroke: #A80036; stroke-width: 2.0;"/><polygon fill="#A80036" points="233,41.9531,239,36.9531,237,41.9531,239,46.9531,233,41.9531" style="stroke: #A80036; stroke-width: 1.0;"/><ellipse cx="193" cy="948.0078" fill="#ADD8E6" rx="11" ry="11" style="stroke: none; stroke-width: 1.0;"/><path d="M192.7969,943.6797 L192.7969,947.3047 L193.7969,947.3047 Q195,947.3047 195.4844,946.8984 Q195.9688,946.4922 195.9688,945.4922 Q195.9688,944.4922 195.4844,944.0859 Q195,943.6797 193.7969,943.6797 L192.7969,943.6797 Z M190.3438,941.6172 L193.7031,941.6172 Q196.2656,941.6172 197.3906,942.5391 Q198.5156,943.4453 198.5156,945.4922 Q198.5156,947.5391 197.3906,948.4609 Q196.2656,949.3672 193.7031,949.3672 L192.7969,949.3672 L192.7969,954.0078 L190.3438,954.0078 L190.3438,941.6172 Z "/><text fill="#000000" font-family="sans-serif" font-size="14" lengthAdjust="spacingAndGlyphs" textLength="76" x="210" y="950.0029">go-spector</text><ellipse cx="237" cy="975.0078" fill="#FEFECE" filter="url(#f1apd4yn4ggpo0)" rx="12" ry="12" style="stroke: #A80036; stroke-width: 2.0;"/><polygon fill="#A80036" points="233,963.0078,239,958.0078,237,963.0078,239,968.0078,233,963.0078" style="stroke: #A80036; stroke-width: 1.0;"/><ellipse cx="375.5" cy="80.9531" fill="#ADD8E6" rx="11" ry="11" style="stroke: none; stroke-width: 1.0;"/><path d="M375.2969,76.625 L375.2969,80.25 L376.2969,80.25 Q377.5,80.25 377.9844,79.8438 Q378.4688,79.4375 378.4688,78.4375 Q378.4688,77.4375 377.9844,77.0313 Q377.5,76.625 376.2969,76.625 L375.2969,76.625 Z M372.8438,74.5625 L376.2031,74.5625 Q378.7656,74.5625 379.8906,75.4844 Q381.0156,76.3906 381.0156,78.4375 Q381.0156,80.4844 379.8906,81.4063 Q378.7656,82.3125 376.2031,82.3125 L375.2969,82.3125 L375.2969,86.9531 L372.8438,86.9531 L372.8438,74.5625 Z "/><text fill="#000000" font-family="sans-serif" font-size="14" lengthAdjust="spacingAndGlyphs" textLength="65" x="392.5" y="82.9482">validators</text><ellipse cx="414" cy="53.9531" fill="#FEFECE" filter="url(#f1apd4yn4ggpo0)" rx="12" ry="12" style="stroke: #A80036; stroke-width: 2.0;"/><polygon fill="#A80036" points="410,41.9531,416,36.9531,414,41.9531,416,46.9531,410,41.9531" style="stroke: #A80036; stroke-width: 1.0;"/><ellipse cx="375.5" cy="948.0078" fill="#ADD8E6" rx="11" ry="11" style="stroke: none; stroke-width: 1.0;"/><path d="M375.2969,943.6797 L375.2969,947.3047 L376.2969,947.3047 Q377.5,947.3047 377.9844,946.8984 Q378.4688,946.4922 378.4688,945.4922 Q378.4688,944.4922 377.9844,944.0859 Q377.5,943.6797 376.2969,943.6797 L375.2969,943.6797 Z M372.8438,941.6172 L376.2031,941.6172 Q378.7656,941.6172 379.8906,942.5391 Q381.0156,943.4453 381.0156,945.4922 Q381.0156,947.5391 379.8906,948.4609 Q378.7656,949.3672 376.2031,949.3672 L375.2969,949.3672 L375.2969,954.0078 L372.8438,954.0078 L372.8438,941.6172 Z "/><text fill="#000000" font-family="sans-serif" font-size="14" lengthAdjust="spacingAndGlyphs" textLength="65" x="392.5" y="950.0029">validators</text><ellipse cx="414" cy="975.0078" fill="#FEFECE" filter="url(#f1apd4yn4ggpo0)" rx="12" ry="12" style="stroke: #A80036; stroke-width: 2.0;"/><polygon fill="#A80036" points="410,963.0078,416,958.0078,414,963.0078,416,968.0078,410,963.0078" style="stroke: #A80036; stroke-width: 1.0;"/><rect fill="#FEFECE" filter="url(#f1apd4yn4ggpo0)" height="36" style="stroke: #A80036; stroke-width: 1.5;" width="119" x="477.5" y="46.9531"/><rect fill="#FEFECE" filter="url(#f1apd4yn4ggpo0)" height="36" style="stroke: #A80036; stroke-width: 1.5;" width="119" x="473.5" y="50.9531"/><ellipse cx="491.5" cy="68.9531" fill="#ADD8E6" rx="11" ry="11" style="stroke: #A80036; stroke-width: 1.0;"/><path d="M491.2969,64.625 L491.2969,68.25 L492.2969,68.25 Q493.5,68.25 493.9844,67.8438 Q494.4688,67.4375 494.4688,66.4375 Q494.4688,65.4375 493.9844,65.0313 Q493.5,64.625 492.2969,64.625 L491.2969,64.625 Z M488.8438,62.5625 L492.2031,62.5625 Q494.7656,62.5625 495.8906,63.4844 Q497.0156,64.3906 497.0156,66.4375 Q497.0156,68.4844 495.8906,69.4063 Q494.7656,70.3125 492.2031,70.3125 L491.2969,70.3125 L491.2969,74.9531 L488.8438,74.9531 L488.8438,62.5625 Z "/><text fill="#000000" font-family="sans-serif" font-size="14" lengthAdjust="spacingAndGlyphs" textLength="77" x="508.5" y="70.9482">validators/*</text><rect fill="#FEFECE" filter="url(#f1apd4yn4ggpo0)" height="36" style="stroke: #A80036; stroke-width: 1.5;" width="119" x="477.5" y="937.0078"/><rect fill="#FEFECE" filter="url(#f1apd4yn4ggpo0)" height="36" style="stroke: #A80036; stroke-width: 1.5;" width="119" x="473.5" y="941.0078"/><ellipse cx="491.5" cy="959.0078" fill="#ADD8E6" rx="11" ry="11" style="stroke: #A80036; stroke-width: 1.0;"/><path d="M491.2969,954.6797 L491.2969,958.3047 L492.2969,958.3047 Q493.5,958.3047 493.9844,957.8984 Q494.4688,957.4922 494.4688,956.4922 Q494.4688,955.4922 493.9844,955.0859 Q493.5,954.6797 492.2969,954.6797 L491.2969,954.6797 Z M488.8438,952.6172 L492.2031,952.6172 Q494.7656,952.6172 495.8906,953.5391 Q497.0156,954.4453 497.0156,956.4922 Q497.0156,958.5391 495.8906,959.4609 Q494.7656,960.3672 492.2031,960.3672 L491.2969,960.3672 L491.2969,965.0078 L488.8438,965.0078 L488.8438,952.6172 Z "/><text fill="#000000" font-family="sans-serif" font-size="14" lengthAdjust="spacingAndGlyphs" textLength="77" x="508.5" y="961.0029">validators/*</text><ellipse cx="621.5" cy="80.9531" fill="#ADD8E6" rx="11" ry="11" style="stroke: none; stroke-width: 1.0;"/><path d="M621.2969,76.625 L621.2969,80.25 L622.2969,80.25 Q623.5,80.25 623.9844,79.8438 Q624.4688,79.4375 624.4688,78.4375 Q624.4688,77.4375 623.9844,77.0313 Q623.5,76.625 622.2969,76.625 L621.2969,76.625 Z M618.8438,74.5625 L622.2031,74.5625 Q624.7656,74.5625 625.8906,75.4844 Q627.0156,76.3906 627.0156,78.4375 Q627.0156,80.4844 625.8906,81.4063 Q624.7656,82.3125 622.2031,82.3125 L621.2969,82.3125 L621.2969,86.9531 L618.8438,86.9531 L618.8438,74.5625 Z "/><text fill="#000000" font-family="sans-serif" font-size="14" lengthAdjust="spacingAndGlyphs" textLength="76" x="638.5" y="82.9482">generators</text><ellipse cx="665.5" cy="53.9531" fill="#FEFECE" filter="url(#f1apd4yn4ggpo0)" rx="12" ry="12" style="stroke: #A80036; stroke-width: 2.0;"/><polygon fill="#A80036" points="661.5,41.9531,667.5,36.9531,665.5,41.9531,667.5,46.9531,661.5,41.9531" style="stroke: #A80036; stroke-width: 1.0;"/><ellipse cx="621.5" cy="948.0078" fill="#ADD8E6" rx="11" ry="11" style="stroke: none; stroke-width: 1.0;"/><path d="M621.2969,943.6797 L621.2969,947.3047 L622.2969,947.3047 Q623.5,947.3047 623.9844,946.8984 Q624.4688,946.4922 624.4688,945.4922 Q624.4688,944.4922 623.9844,944.0859 Q623.5,943.6797 622.2969,943.6797 L621.2969,943.6797 Z M618.8438,941.6172 L622.2031,941.6172 Q624.7656,941.6172 625.8906,942.5391 Q627.0156,943.4453 627.0156,945.4922 Q627.0156,947.5391 625.8906,948.4609 Q624.7656,949.3672 622.2031,949.3672 L621.2969,949.3672 L621.2969,954.0078 L618.8438,954.0078 L618.8438,941.6172 Z "/><text fill="#000000" font-family="sans-serif" font-size="14" lengthAdjust="spacingAndGlyphs" textLength="76" x="638.5" y="950.0029">generators</text><ellipse cx="665.5" cy="975.0078" fill="#FEFECE" filter="url(#f1apd4yn4ggpo0)" rx="12" ry="12" style="stroke: #A80036; stroke-width: 2.0;"/><polygon fill="#A80036" points="661.5,963.0078,667.5,958.0078,665.5,963.0078,667.5,968.0078,661.5,963.0078" style="stroke: #A80036; stroke-width: 1.0;"/><rect fill="#FEFECE" filter="url(#f1apd4yn4ggpo0)" height="36" style="stroke: #A80036; stroke-width: 1.5;" width="130" x="734.5" y="46.9531"/><rect fill="#FEFECE" filter="url(#f1apd4yn4ggpo0)" height="36" style="stroke: #A80036; stroke-width: 1.5;" width="130" x="730.5" y="50.9531"/><ellipse cx="748.5" cy="68.9531" fill="#ADD8E6" rx="11" ry="11" style="stroke: #A80036; stroke-width: 1.0;"/><path d="M748.2969,64.625 L748.2969,68.25 L749.2969,68.25 Q750.5,68.25 750.9844,67.8438 Q751.4688,67.4375 751.4688,66.4375 Q751.4688,65.4375 750.9844,65.0313 Q750.5,64.625 749.2969,64.625 L748.2969,64.625 Z M745.8438,62.5625 L749.2031,62.5625 Q751.7656,62.5625 752.8906,63.4844 Q754.0156,64.3906 754.0156,66.4375 Q754.0156,68.4844 752.8906,69.4063 Q751.7656,70.3125 749.2031,70.3125 L748.2969,70.3125 L748.2969,74.9531 L745.8438,74.9531 L745.8438,62.5625 Z "/><text fill="#000000" font-family="sans-serif" font-size="14" lengthAdjust="spacingAndGlyphs" textLength="88" x="765.5" y="70.9482">generators/*</text><rect fill="#FEFECE" filter="url(#f1apd4yn4ggpo0)" height="36" style="stroke: #A80036; stroke-width: 1.5;" width="130" x="734.5" y="937.0078"/><rect fill="#FEFECE" filter="url(#f1apd4yn4ggpo0)" height="36" style="stroke: #A80036; stroke-width: 1.5;" width="130" x="730.5" y="941.0078"/><ellipse cx="748.5" cy="959.0078" fill="#ADD8E6" rx="11" ry="11" style="stroke: #A80036; stroke-width: 1.0;"/><path d="M748.2969,954.6797 L748.2969,958.3047 L749.2969,958.3047 Q750.5,958.3047 750.9844,957.8984 Q751.4688,957.4922 751.4688,956.4922 Q751.4688,955.4922 750.9844,955.0859 Q750.5,954.6797 749.2969,954.6797 L748.2969,954.6797 Z M745.8438,952.6172 L749.2031,952.6172 Q751.7656,952.6172 752.8906,953.5391 Q754.0156,954.4453 754.0156,956.4922 Q754.0156,958.5391 752.8906,959.4609 Q751.7656,960.3672 749.2031,960.3672 L748.2969,960.3672 L748.2969,965.0078 L745.8438,965.0078 L745.8438,952.6172 Z "/><text fill="#000000" font-family="sans-serif" font-size="14" lengthAdjust="spacingAndGlyphs" textLength="88" x="765.5" y="961.0029">generators/*</text><rect fill="#FFFFFF" filter="url(#f1apd4yn4ggpo0)" height="663.2578" style="stroke: #A80036; stroke-width: 1.0;" width="10" x="53" y="256.75"/><rect fill="#FFFFFF" filter="url(#f1apd4yn4ggpo0)" height="25" style="stroke: #A80036; stroke-width: 1.0;" width="10" x="58" y="397.4141"/><rect fill="#FFFFFF" filter="url(#f1apd4yn4ggpo0)" height="25" style="stroke: #A80036; stroke-width: 1.0;" width="10" x="58" y="490.6797"/><rect fill="#FFFFFF" filter="url(#f1apd4yn4ggpo0)" height="29.1328" style="stroke: #A80036; stroke-width: 1.0;" width="10" x="232" y="331.1484"/><rect fill="#FFFFFF" filter="url(#f1apd4yn4ggpo0)" height="286.7969" style="stroke: #A80036; stroke-width: 1.0;" width="10" x="232" y="551.8125"/><rect fill="#FFFFFF" filter="url(#f1apd4yn4ggpo0)" height="25" style="stroke: #A80036; stroke-width: 1.0;" width="10" x="237" y="588.9453"/><rect fill="#FFFFFF" filter="url(#f1apd4yn4ggpo0)" height="88.2656" style="stroke: #A80036; stroke-width: 1.0;" width="10" x="409" y="650.0781"/><rect fill="#FFFFFF" filter="url(#f1apd4yn4ggpo0)" height="14" style="stroke: #A80036; stroke-width: 1.0;" width="10" x="532" y="703.3438"/><rect fill="#FFFFFF" filter="url(#f1apd4yn4ggpo0)" height="57.1328" style="stroke: #A80036; stroke-width: 1.0;" width="10" x="660.5" y="767.4766"/><rect fill="#FFFFFF" filter="url(#f1apd4yn4ggpo0)" height="14" style="stroke: #A80036; stroke-width: 1.0;" width="10" x="794.5" y="796.6094"/><rect fill="#FFFFFF" filter="url(#f1apd4yn4ggpo0)" height="40.2656" style="stroke: #000000; stroke-width: 2.0;" width="846" x="21.5" y="101.9531"/><polygon fill="#EEEEEE" points="21.5,101.9531,87.5,101.9531,87.5,108.9531,77.5,118.9531,21.5,118.9531,21.5,101.9531" style="stroke: #000000; stroke-width: 2.0;"/><text fill="#000000" font-family="sans-serif" font-size="13" font-weight="bold" lengthAdjust="spacingAndGlyphs" textLength="21" x="34.5" y="116.02">ref</text><text fill="#000000" font-family="sans-serif" font-size="13" lengthAdjust="spacingAndGlyphs" textLength="62" x="415.5" y="135.02">import-v0</text><rect fill="#FFFFFF" filter="url(#f1apd4yn4ggpo0)" height="40.2656" style="stroke: #000000; stroke-width: 2.0;" width="846" x="21.5" y="147.2188"/><polygon fill="#EEEEEE" points="21.5,147.2188,87.5,147.2188,87.5,154.2188,77.5,164.2188,21.5,164.2188,21.5,147.2188" style="stroke: #000000; stroke-width: 2.0;"/><text fill="#000000" font-family="sans-serif" font-size="13" font-weight="bold" lengthAdjust="spacingAndGlyphs" textLength="21" x="34.5" y="161.2856">ref</text><text fill="#000000" font-family="sans-serif" font-size="13" lengthAdjust="spacingAndGlyphs" textLength="39" x="427" y="180.2856">init-v0</text><rect fill="#EEEEEE" filter="url(#f1apd4yn4ggpo0)" height="3" style="stroke: #EEEEEE; stroke-width: 1.0;" width="885.5" x="3" y="213.0508"/><line style="stroke: #000000; stroke-width: 1.0;" x1="3" x2="888.5" y1="213.0508" y2="213.0508"/><line style="stroke: #000000; stroke-width: 1.0;" x1="3" x2="888.5" y1="216.0508" y2="216.0508"/><rect fill="#EEEEEE" filter="url(#f1apd4yn4ggpo0)" height="23.1328" style="stroke: #000000; stroke-width: 2.0;" width="55" x="418.25" y="202.4844"/><text fill="#000000" font-family="sans-serif" font-size="13" font-weight="bold" lengthAdjust="spacingAndGlyphs" textLength="36" x="424.25" y="218.5513">main</text><polygon fill="#A80036" points="41,252.75,51,256.75,41,260.75,45,256.75" style="stroke: #A80036; stroke-width: 1.0;"/><line style="stroke: #A80036; stroke-width: 1.0;" x1="11" x2="47" y1="256.75" y2="256.75"/><text fill="#000000" font-family="sans-serif" font-size="13" lengthAdjust="spacingAndGlyphs" textLength="28" x="18" y="251.6841">args</text><rect fill="#FFFFFF" filter="url(#f1apd4yn4ggpo0)" height="40.2656" style="stroke: #000000; stroke-width: 2.0;" width="121" x="21.5" y="264.75"/><polygon fill="#EEEEEE" points="21.5,264.75,87.5,264.75,87.5,271.75,77.5,281.75,21.5,281.75,21.5,264.75" style="stroke: #000000; stroke-width: 2.0;"/><text fill="#000000" font-family="sans-serif" font-size="13" font-weight="bold" lengthAdjust="spacingAndGlyphs" textLength="21" x="34.5" y="278.8169">ref</text><text fill="#000000" font-family="sans-serif" font-size="13" lengthAdjust="spacingAndGlyphs" textLength="113" x="27.5" y="297.8169">read template file</text><polygon fill="#A80036" points="220,327.1484,230,331.1484,220,335.1484,224,331.1484" style="stroke: #A80036; stroke-width: 1.0;"/><line style="stroke: #A80036; stroke-width: 1.0;" x1="63" x2="226" y1="331.1484" y2="331.1484"/><text fill="#000000" font-family="sans-serif" font-size="13" lengthAdjust="spacingAndGlyphs" textLength="51" x="70" y="326.0825">Initialize</text><polygon fill="#A80036" points="74,356.2813,64,360.2813,74,364.2813,70,360.2813" style="stroke: #A80036; stroke-width: 1.0;"/><line style="stroke: #A80036; stroke-width: 1.0; stroke-dasharray: 2.0,2.0;" x1="68" x2="236" y1="360.2813" y2="360.2813"/><text fill="#000000" font-family="sans-serif" font-size="13" lengthAdjust="spacingAndGlyphs" textLength="54" x="80" y="355.2153">instance</text><line style="stroke: #A80036; stroke-width: 1.0;" x1="63" x2="110" y1="384.4141" y2="384.4141"/><line style="stroke: #A80036; stroke-width: 1.0;" x1="110" x2="110" y1="384.4141" y2="397.4141"/><line style="stroke: #A80036; stroke-width: 1.0;" x1="69" x2="110" y1="397.4141" y2="397.4141"/><polygon fill="#A80036" points="79,393.4141,69,397.4141,79,401.4141,75,397.4141" style="stroke: #A80036; stroke-width: 1.0;"/><text fill="#000000" font-family="sans-serif" font-size="13" lengthAdjust="spacingAndGlyphs" textLength="155" x="75" y="379.3481">search specification files</text><line style="stroke: #A80036; stroke-width: 1.0; stroke-dasharray: 2.0,2.0;" x1="68" x2="110" y1="421.4141" y2="421.4141"/><line style="stroke: #A80036; stroke-width: 1.0; stroke-dasharray: 2.0,2.0;" x1="110" x2="110" y1="421.4141" y2="434.4141"/><line style="stroke: #A80036; stroke-width: 1.0; stroke-dasharray: 2.0,2.0;" x1="63" x2="110" y1="434.4141" y2="434.4141"/><polygon fill="#A80036" points="73,430.4141,63,434.4141,73,438.4141,69,434.4141" style="stroke: #A80036; stroke-width: 1.0;"/><path d="M14.5,444.4141 L91.5,444.4141 L91.5,451.4141 L81.5,461.4141 L14.5,461.4141 L14.5,444.4141 " fill="#EEEEEE" style="stroke: #000000; stroke-width: 1.0;"/><rect fill="none" height="447.4609" style="stroke: #000000; stroke-width: 2.0;" width="864" x="14.5" y="444.4141"/><text fill="#000000" font-family="sans-serif" font-size="13" font-weight="bold" lengthAdjust="spacingAndGlyphs" textLength="32" x="29.5" y="457.481">loop</text><text fill="#000000" font-family="sans-serif" font-size="11" font-weight="bold" lengthAdjust="spacingAndGlyphs" textLength="125" x="106.5" y="456.6245">[specification files]</text><line style="stroke: #A80036; stroke-width: 1.0;" x1="63" x2="110" y1="477.6797" y2="477.6797"/><line style="stroke: #A80036; stroke-width: 1.0;" x1="110" x2="110" y1="477.6797" y2="490.6797"/><line style="stroke: #A80036; stroke-width: 1.0;" x1="69" x2="110" y1="490.6797" y2="490.6797"/><polygon fill="#A80036" points="79,486.6797,69,490.6797,79,494.6797,75,490.6797" style="stroke: #A80036; stroke-width: 1.0;"/><text fill="#000000" font-family="sans-serif" font-size="13" lengthAdjust="spacingAndGlyphs" textLength="134" x="75" y="472.6138">read specification file</text><line style="stroke: #A80036; stroke-width: 1.0; stroke-dasharray: 2.0,2.0;" x1="68" x2="110" y1="514.6797" y2="514.6797"/><line style="stroke: #A80036; stroke-width: 1.0; stroke-dasharray: 2.0,2.0;" x1="110" x2="110" y1="514.6797" y2="527.6797"/><line style="stroke: #A80036; stroke-width: 1.0; stroke-dasharray: 2.0,2.0;" x1="63" x2="110" y1="527.6797" y2="527.6797"/><polygon fill="#A80036" points="73,523.6797,63,527.6797,73,531.6797,69,527.6797" style="stroke: #A80036; stroke-width: 1.0;"/><polygon fill="#A80036" points="220,547.8125,230,551.8125,220,555.8125,224,551.8125" style="stroke: #A80036; stroke-width: 1.0;"/><line style="stroke: #A80036; stroke-width: 1.0;" x1="63" x2="226" y1="551.8125" y2="551.8125"/><text fill="#000000" font-family="sans-serif" font-size="13" lengthAdjust="spacingAndGlyphs" textLength="65" x="70" y="546.7466">Transform</text><line style="stroke: #A80036; stroke-width: 1.0;" x1="242" x2="289" y1="575.9453" y2="575.9453"/><line style="stroke: #A80036; stroke-width: 1.0;" x1="289" x2="289" y1="575.9453" y2="588.9453"/><line style="stroke: #A80036; stroke-width: 1.0;" x1="248" x2="289" y1="588.9453" y2="588.9453"/><polygon fill="#A80036" points="258,584.9453,248,588.9453,258,592.9453,254,588.9453" style="stroke: #A80036; stroke-width: 1.0;"/><text fill="#000000" font-family="sans-serif" font-size="13" lengthAdjust="spacingAndGlyphs" textLength="153" x="254" y="570.8794">identify specification API</text><line style="stroke: #A80036; stroke-width: 1.0; stroke-dasharray: 2.0,2.0;" x1="247" x2="289" y1="612.9453" y2="612.9453"/><line style="stroke: #A80036; stroke-width: 1.0; stroke-dasharray: 2.0,2.0;" x1="289" x2="289" y1="612.9453" y2="625.9453"/><line style="stroke: #A80036; stroke-width: 1.0; stroke-dasharray: 2.0,2.0;" x1="242" x2="289" y1="625.9453" y2="625.9453"/><polygon fill="#A80036" points="252,621.9453,242,625.9453,252,629.9453,248,625.9453" style="stroke: #A80036; stroke-width: 1.0;"/><polygon fill="#A80036" points="397,646.0781,407,650.0781,397,654.0781,401,650.0781" style="stroke: #A80036; stroke-width: 1.0;"/><line style="stroke: #A80036; stroke-width: 1.0;" x1="242" x2="403" y1="650.0781" y2="650.0781"/><text fill="#000000" font-family="sans-serif" font-size="13" lengthAdjust="spacingAndGlyphs" textLength="52" x="249" y="645.0122">Validate</text><path d="M354.5,665.0781 L431.5,665.0781 L431.5,672.0781 L421.5,682.0781 L354.5,682.0781 L354.5,665.0781 " fill="#EEEEEE" style="stroke: #000000; stroke-width: 1.0;"/><rect fill="none" height="60.2656" style="stroke: #000000; stroke-width: 2.0;" width="256" x="354.5" y="665.0781"/><text fill="#000000" font-family="sans-serif" font-size="13" font-weight="bold" lengthAdjust="spacingAndGlyphs" textLength="32" x="369.5" y="678.145">loop</text><text fill="#000000" font-family="sans-serif" font-size="11" font-weight="bold" lengthAdjust="spacingAndGlyphs" textLength="74" x="446.5" y="677.2886">[validators]</text><polygon fill="#A80036" points="520,699.3438,530,703.3438,520,707.3438,524,703.3438" style="stroke: #A80036; stroke-width: 1.0;"/><line style="stroke: #A80036; stroke-width: 1.0;" x1="419" x2="526" y1="703.3438" y2="703.3438"/><text fill="#000000" font-family="sans-serif" font-size="13" lengthAdjust="spacingAndGlyphs" textLength="52" x="426" y="698.2778">Validate</text><polygon fill="#A80036" points="430,713.3438,420,717.3438,430,721.3438,426,717.3438" style="stroke: #A80036; stroke-width: 1.0;"/><line style="stroke: #A80036; stroke-width: 1.0; stroke-dasharray: 2.0,2.0;" x1="424" x2="536" y1="717.3438" y2="717.3438"/><polygon fill="#A80036" points="253,734.3438,243,738.3438,253,742.3438,249,738.3438" style="stroke: #A80036; stroke-width: 1.0;"/><line style="stroke: #A80036; stroke-width: 1.0; stroke-dasharray: 2.0,2.0;" x1="247" x2="413" y1="738.3438" y2="738.3438"/><polygon fill="#A80036" points="648.5,763.4766,658.5,767.4766,648.5,771.4766,652.5,767.4766" style="stroke: #A80036; stroke-width: 1.0;"/><line style="stroke: #A80036; stroke-width: 1.0;" x1="242" x2="654.5" y1="767.4766" y2="767.4766"/><text fill="#000000" font-family="sans-serif" font-size="13" lengthAdjust="spacingAndGlyphs" textLength="60" x="249" y="762.4106">Generate</text><polygon fill="#A80036" points="782.5,792.6094,792.5,796.6094,782.5,800.6094,786.5,796.6094" style="stroke: #A80036; stroke-width: 1.0;"/><line style="stroke: #A80036; stroke-width: 1.0;" x1="670.5" x2="788.5" y1="796.6094" y2="796.6094"/><text fill="#000000" font-family="sans-serif" font-size="13" lengthAdjust="spacingAndGlyphs" textLength="60" x="677.5" y="791.5435">Generate</text><polygon fill="#A80036" points="681.5,806.6094,671.5,810.6094,681.5,814.6094,677.5,810.6094" style="stroke: #A80036; stroke-width: 1.0;"/><line style="stroke: #A80036; stroke-width: 1.0; stroke-dasharray: 2.0,2.0;" x1="675.5" x2="798.5" y1="810.6094" y2="810.6094"/><polygon fill="#A80036" points="253,820.6094,243,824.6094,253,828.6094,249,824.6094" style="stroke: #A80036; stroke-width: 1.0;"/><line style="stroke: #A80036; stroke-width: 1.0; stroke-dasharray: 2.0,2.0;" x1="247" x2="664.5" y1="824.6094" y2="824.6094"/><polygon fill="#A80036" points="74,834.6094,64,838.6094,74,842.6094,70,838.6094" style="stroke: #A80036; stroke-width: 1.0;"/><line style="stroke: #A80036; stroke-width: 1.0; stroke-dasharray: 2.0,2.0;" x1="68" x2="236" y1="838.6094" y2="838.6094"/><rect fill="#FFFFFF" filter="url(#f1apd4yn4ggpo0)" height="40.2656" style="stroke: #000000; stroke-width: 2.0;" width="114" x="21.5" y="846.6094"/><polygon fill="#EEEEEE" points="21.5,846.6094,87.5,846.6094,87.5,853.6094,77.5,863.6094,21.5,863.6094,21.5,846.6094" style="stroke: #000000; stroke-width: 2.0;"/><text fill="#000000" font-family="sans-serif" font-size="13" font-weight="bold" lengthAdjust="spacingAndGlyphs" textLength="21" x="34.5" y="860.6763">ref</text><text fill="#000000" font-family="sans-serif" font-size="13" lengthAdjust="spacingAndGlyphs" textLength="106" x="27.5" y="879.6763">write source files</text><polygon fill="#A80036" points="14,916.0078,4,920.0078,14,924.0078,10,920.0078" style="stroke: #A80036; stroke-width: 1.0;"/><line style="stroke: #A80036; stroke-width: 1.0; stroke-dasharray: 2.0,2.0;" x1="8" x2="57" y1="920.0078" y2="920.0078"/><text fill="#000000" font-family="sans-serif" font-size="13" lengthAdjust="spacingAndGlyphs" textLength="31" x="20" y="914.9419">error</text><!--MD5=[a0ee59df08a1e2b018d395dc4479546f]
@startuml sequence
autoactivate on


boundary "main" as Main << (P,LightBlue) >>
control "go-spector" as GoSpector << (P,LightBlue) >>
control "validators" as Validators << (P,LightBlue) >>
collections "validators/*" as ValidatorsCollection << (P,LightBlue) >>
control "generators" as Generators << (P,LightBlue) >>
collections "generators/*" as GeneratorsCollection << (P,LightBlue) >>

ref over Main, GeneratorsCollection: import-v0

ref over Main, GeneratorsCollection: init-v0

== main ==
?-> Main : args

ref over Main : read template file

Main -> GoSpector : Initialize
return instance

Main -> Main : search specification files
return

loop specification files
  Main -> Main : read specification file
  return

  Main -> GoSpector : Transform
  GoSpector -> GoSpector : identify specification API
  return
  GoSpector -> Validators : Validate
    loop validators
      Validators -> ValidatorsCollection : Validate
      return
    end
  return

  GoSpector -> Generators : Generate
  Generators -> GeneratorsCollection : Generate
  return
  return
  return
  ref over Main : write source files
end


?<- - Main - - : error

title Go Spector CLI v0
@enduml

PlantUML version 1.2020.02(Sun Mar 01 10:22:07 GMT 2020)
(GPL source distribution)
Java Runtime: OpenJDK Runtime Environment
JVM: OpenJDK 64-Bit Server VM
Java Version: 11.0.9+11-Ubuntu-0ubuntu1
Operating System: Linux
Default Encoding: ANSI_X3.4-1968
Language: en
Country: US
--></g></svg>